<?xml version="1.0" encoding="utf-8"?>
<!-- Generator: Adobe Adobe Illustrator 24.2.0, SVG Export Plug-In . SVG Version: 6.00 Build 0)  -->
<svg version="1.1" xmlns="http://www.w3.org/2000/svg" xmlns:xlink="http://www.w3.org/1999/xlink" x="0px" y="0px" width="906.6px"
	 height="749.17px" viewBox="0 0 906.6 749.17" style="enable-background:new 0 0 906.6 749.17;" xml:space="preserve">
<style type="text/css">
	.st0{display:none;}
	.st1{fill:#2493B1;}
	.st2{fill:#02242C;}
	.st3{fill:#30386D;}
	.st4{fill:#2B3369;}
	.st5{fill:#8AF8D1;}
	.st6{fill:#140505;}
	.st7{fill:#2F376C;}
	.st8{display:inline;fill:#0D242B;}
	.st9{fill:#FFFFFF;}
	.st10{fill:#3B8FCF;}
	.st11{fill:#193268;}
	.st12{fill:#86DCF7;}
	.st13{fill:#89E5F7;}
	.st14{fill:#B4EDFE;}
	.st15{display:inline;}
	.st16{fill:#89F8D1;}
	.st17{display:inline;fill:url(#SVGID_1_);}
	.st18{display:inline;fill:url(#SVGID_2_);}
</style>
<g id="Layer_1" class="st0">
</g>
<g id="Layer_43" class="st0">
</g>
<g id="Layer_44">
	<g id="Layer_45">
	</g>
</g>
<g id="Layer_46">
	<g>
		<path class="st7" d="M842.7,406.62c-13.78-10.88-28.22-22.08-45.39-25.77c-21.38-4.6-64.86,6.26-64.86,6.26
			c29.46-17.26,51.1-26.53,71.1-31.61C808.53,354.23,842.7,406.62,842.7,406.62z"/>
		<g>
			<path class="st3" d="M844.63,406.22c-16.13-12.73-33.8-26.32-55.11-27.68c-8.21-0.53-16.45,0.1-24.61,1.07
				c-7.51,0.9-14.98,2.16-22.4,3.64c-3.86,0.77-7.72,1.59-11.54,2.54c1.13,0.83,2.27,1.65,3.4,2.48
				c13.68-8.01,27.69-15.55,42.29-21.75c5.78-2.46,11.66-4.7,17.64-6.63c2.72-0.88,5.46-1.69,8.23-2.43
				c0.68-0.18,1.38-0.33,2.06-0.54c0.38-0.12,0.81-0.04,0.02-0.07c0.34,0.01-0.53-0.04-0.4-0.02c0.21,0.03-0.81-0.19-0.42-0.08
				c-0.08-0.02-0.75-0.28-0.38-0.12c0.33,0.14-0.47-0.33-0.27-0.14c0.06,0.06,0.16,0.09,0.23,0.14c0.26,0.17,0.57,0.43,0.14,0.08
				c0.18,0.15,0.38,0.29,0.56,0.45c0.43,0.37,0.85,0.76,1.25,1.16c0.49,0.48,0.96,0.98,1.42,1.48c0.07,0.07,0.4,0.44,0.18,0.19
				c0.13,0.15,0.26,0.29,0.39,0.44c0.27,0.31,0.54,0.62,0.81,0.93c2.59,3.01,5.01,6.17,7.39,9.34c5.47,7.3,10.68,14.78,15.8,22.32
				c3.03,4.45,5.87,9.06,8.99,13.45c0.05,0.07,0.09,0.14,0.14,0.21c0.62,0.95,2.12,1.35,3.19,1.32c0.78-0.02,1.94-0.46,1.31-1.42
				c-2.55-3.91-5.16-7.8-7.78-11.67c-5.22-7.72-10.53-15.38-16.08-22.87c-2.5-3.38-5.05-6.73-7.75-9.94
				c-1.83-2.18-3.71-4.48-5.99-6.21c-1.12-0.86-2.37-1.55-3.8-1.73c-1.03-0.13-1.96,0.16-2.95,0.42c-1.44,0.38-2.87,0.77-4.29,1.19
				c-6.07,1.76-12.04,3.83-17.92,6.15c-14.43,5.69-28.26,12.83-41.73,20.49c-2.05,1.17-4.1,2.35-6.14,3.54
				c-0.84,0.49-0.44,1.25,0.2,1.72c0.83,0.62,2.17,1.01,3.2,0.76c9.7-2.42,19.6-4.24,29.5-5.61c7.76-1.07,15.6-1.84,23.44-1.72
				c3.19,0.05,6.79,0.31,9.72,0.88c4.6,0.89,9.71,2.73,14.19,4.84c10.94,5.15,20.54,12.75,29.98,20.2c0.9,0.71,2.26,1.19,3.42,0.92
				C845.1,407.71,845.48,406.89,844.63,406.22z"/>
		</g>
	</g>
	<g>
		<path class="st7" d="M622.85,347.57c17.74-2.23,36.24-4.4,53.61,1.23c21.65,7.01,55.98,38.48,55.98,38.48
			c-18.52-29.76-33.76-48.72-49.51-63.27C679.01,320.38,622.85,347.57,622.85,347.57z"/>
		<g>
			<path class="st3" d="M624.33,348.88c11.61-1.46,23.38-2.92,35.09-2.04c5.76,0.43,11.46,1.43,16.95,3.24
				c0.75,0.25-0.26-0.09,0.19,0.07c0.2,0.07,0.4,0.14,0.59,0.21c0.36,0.13,0.72,0.27,1.08,0.41c0.79,0.31,1.56,0.64,2.34,0.98
				c1.59,0.71,3.09,1.44,4.57,2.23c13.36,7.12,25.48,16.66,37.01,26.4c2.82,2.38,5.63,4.79,8.36,7.29c0.78,0.72,2.11,1.08,3.15,0.94
				c0.75-0.1,1.58-0.53,1.04-1.39c-8.68-13.93-17.86-27.59-28.2-40.35c-4.18-5.15-8.55-10.15-13.14-14.94
				c-2.11-2.2-4.26-4.34-6.47-6.44c-1.56-1.48-2.84-2.83-5.06-3.13c-2.54-0.34-5.24,0.51-7.64,1.24c-3.85,1.17-7.62,2.59-11.35,4.07
				c-8.8,3.49-17.46,7.35-26.07,11.29c-5.2,2.38-10.54,4.63-15.59,7.31c-0.08,0.04-0.16,0.08-0.25,0.12
				c-1.02,0.49-0.22,1.48,0.42,1.88c0.9,0.56,2.4,0.95,3.42,0.45c4.09-1.98,8.21-3.91,12.33-5.82c8.27-3.83,16.59-7.58,25.02-11.06
				c3.91-1.62,7.84-3.18,11.83-4.58c2.54-0.89,5.15-1.74,8.03-2.21c0.43-0.07-0.4,0.02-0.1,0.01c0.09,0,0.18-0.02,0.28-0.02
				c0.16,0,0.86,0.03,0.34-0.02c-0.48-0.05-0.14-0.01-0.03,0.01c0.38,0.05-0.38-0.08-0.41-0.08c0.39,0.1-0.5-0.19-0.39-0.14
				c0.07,0.03-0.42-0.26-0.53-0.31c-0.46-0.2,0.15,0.17,0.3,0.31c0.26,0.24,0.52,0.49,0.78,0.73c0.52,0.49,1.05,0.99,1.56,1.49
				c1.09,1.05,2.17,2.11,3.24,3.18c4.36,4.39,8.5,8.97,12.47,13.72c9.91,11.86,18.75,24.59,27.06,37.61
				c1.23,1.92,2.44,3.85,3.64,5.78c1.39-0.15,2.79-0.3,4.18-0.45c-7.66-7.02-15.77-13.61-24.1-19.82
				c-6.67-4.98-13.54-9.77-20.84-13.79c-3.31-1.83-6.72-3.53-10.27-4.85c-5.37-1.99-11.04-3.22-16.72-3.89
				c-13.7-1.62-27.48,0.02-41.09,1.73c-1.05,0.13-1.13,1.07-0.46,1.71C621.78,348.79,623.19,349.03,624.33,348.88z"/>
		</g>
	</g>
</g>
<g id="Layer_46_copy">
	<g>
		<path class="st7" d="M744.65,486.31c-13.52-2.04-27.61-4.06-40.78-0.68c-16.4,4.21-42.21,24.88-42.21,24.88
			c13.8-19.95,25.2-32.55,37.04-42.12C701.65,466.01,744.65,486.31,744.65,486.31z"/>
		<g>
			<path class="st3" d="M744.32,484.98c-15.94-2.4-33.02-4.82-48.38,1.55c-10.64,4.42-20.41,11.1-29.69,17.86
				c-2.31,1.68-4.61,3.39-6.84,5.18c1.49,0.63,2.99,1.26,4.49,1.89c6.68-9.65,13.76-19.06,21.73-27.69
				c3.25-3.52,6.65-6.9,10.22-10.1c0.8-0.71,1.61-1.42,2.42-2.11c0.8-0.68,2.05-1.38,2.67-2.22c-0.22,0.3-0.47,0.22-0.66,0.24
				c0.75-0.08-0.45-0.1,0.29,0.01c0.17,0.03,0.34,0.05,0.51,0.08c0.61,0.08-0.59-0.14,0.03,0.01c0.49,0.12,0.97,0.23,1.46,0.37
				c0.51,0.14,1.02,0.3,1.53,0.45c0.28,0.09,0.55,0.18,0.83,0.27c0.17,0.06,0.35,0.11,0.52,0.17c0.5,0.17-0.47-0.17,0.08,0.03
				c2.88,1.01,5.73,2.11,8.56,3.26c6.3,2.55,12.53,5.29,18.72,8.08c3.64,1.64,7.27,3.3,10.88,5.01c0.78,0.37,2.54,0.75,3.2-0.05
				c0.71-0.85-0.69-1.66-1.29-1.94c-9.35-4.41-18.8-8.66-28.36-12.58c-5.32-2.18-10.85-4.66-16.55-5.7
				c-0.8-0.15-1.61-0.24-2.42-0.19c-1.51,0.1-2.39,1.06-3.52,2c-3.64,3.04-7.11,6.28-10.43,9.67c-9.29,9.51-17.36,20.14-24.92,31.05
				c-1.21,1.74,3.36,2.79,4.49,1.89c5.64-4.52,11.59-8.71,17.66-12.63c4.97-3.21,10.09-6.25,15.46-8.75
				c6.01-2.8,12.23-4.36,18.87-4.76c9.75-0.58,19.47,0.87,29.09,2.32c0.72,0.11,2.23,0.02,2.08-1.03
				C746.92,485.58,745.11,485.1,744.32,484.98z"/>
		</g>
	</g>
	<g>
		<path class="st7" d="M571.65,522.48c11.35-7.12,23.25-14.44,37.28-16.72c17.48-2.85,52.8,4.85,52.8,4.85
			c-23.82-11.82-41.35-18.23-57.59-21.83C600.08,487.88,571.65,522.48,571.65,522.48z"/>
		<g>
			<path class="st3" d="M573.57,523.65c13.33-8.35,27.43-16.75,43.55-17.13c12.02-0.29,24.14,1.57,35.93,3.68
				c1.22,0.22,2.44,0.44,3.65,0.67c0.51,0.1,1.02,0.2,1.52,0.29c0.59,0.11-0.42-0.09,0.14,0.03c0.21,0.04,0.43,0.09,0.64,0.13
				c0.8,0.16,1.6,0.32,2.4,0.5c0.72,0.16,2.21,0.43,2.65-0.41c0.45-0.85-0.8-1.5-1.37-1.79c-10.89-5.4-21.97-10.46-33.39-14.65
				c-4.75-1.74-9.56-3.34-14.42-4.74c-2.23-0.64-4.48-1.24-6.74-1.8c-1.79-0.44-3.92-1.3-5.79-0.97c-1.68,0.3-3.15,1.61-4.41,2.68
				c-2.17,1.84-4.18,3.88-6.16,5.92c-4.84,5.01-9.44,10.25-13.98,15.53c-2.83,3.29-5.63,6.6-8.39,9.95
				c-1.2,1.46,3.42,3.18,4.49,1.89c6.42-7.8,13.01-15.49,19.9-22.88c2.1-2.25,4.23-4.47,6.47-6.58c0.85-0.8,1.72-1.59,2.63-2.34
				c0.85-0.69,1.02-0.87,1.87-1.33c0.13-0.07,0.27-0.12,0.39-0.19c0.37-0.21-0.09,0.01-0.03,0c0.39-0.05-0.46,0-0.5,0
				c-0.1-0.01-0.42,0.02-0.51-0.06c0.16,0.14,0.69,0.15,0.92,0.21c2.18,0.5,4.35,1.04,6.51,1.63c4.41,1.19,8.78,2.56,13.09,4.07
				c12.39,4.36,24.38,9.81,36.14,15.64c0.43-0.73,0.85-1.47,1.28-2.2c-8.2-1.79-16.53-3.16-24.85-4.21
				c-6.59-0.83-13.23-1.44-19.88-1.44c-7.29,0-14.3,1.22-21.18,3.66c-9.42,3.34-17.98,8.61-26.41,13.9
				C567.79,522.53,572.22,524.5,573.57,523.65z"/>
		</g>
	</g>
</g>
<g id="Layer_46_copy_2">
	<g>
		<path class="st7" d="M528.57,468.2c-8.65-6.45-17.7-13.07-27.51-14.52c-12.21-1.81-35.05,8-35.05,8
			c14.5-13.25,25.48-20.7,35.98-25.27C504.61,435.27,528.57,468.2,528.57,468.2z"/>
		<g>
			<path class="st3" d="M530.51,467.8c-9.83-7.32-20.91-15.75-33.77-15.72c-8.94,0.03-17.94,2.94-26.27,5.94
				c-2.14,0.77-4.28,1.58-6.37,2.47c1.39,0.7,2.78,1.41,4.16,2.11c7.05-6.43,14.39-12.64,22.4-17.85c3.15-2.04,6.4-3.93,9.76-5.59
				c0.71-0.35,1.43-0.69,2.15-1.02c0.35-0.16,0.72-0.3,1.07-0.48c0.6-0.31,0.04,0-0.11,0.01c-0.56,0.03-0.99,0.06-1.55-0.09
				c0.14,0.04-1.13-0.52-0.59-0.21c0.36,0.21,0.02,0.01-0.04-0.04c0.12,0.1,0.24,0.19,0.36,0.29c3.29,2.73,5.76,6.11,8.51,9.51
				c3.51,4.34,6.91,8.78,10.27,13.24c1.96,2.6,3.91,5.22,5.83,7.85c0.68,0.93,2.08,1.35,3.19,1.32c0.73-0.02,2-0.48,1.31-1.42
				c-5.11-7.02-10.34-13.96-15.79-20.72c-2.91-3.62-5.85-7.59-9.44-10.58c-1.62-1.35-3.7-2.36-5.79-1.5
				c-3.41,1.41-6.69,3.23-9.85,5.12c-9.48,5.69-18.04,12.82-26.19,20.26c-0.73,0.66,0.54,1.56,1.02,1.8
				c0.92,0.47,2.16,0.74,3.15,0.31c5.01-2.15,10.22-3.94,15.47-5.4c4.03-1.13,8.18-2.13,12.35-2.48c4.67-0.4,8.83,0.43,13.26,2.39
				c6.38,2.82,12.05,7.1,17.62,11.24c0.93,0.69,2.24,1.2,3.42,0.92C530.95,469.3,531.38,468.46,530.51,467.8z"/>
		</g>
	</g>
	<g>
		<path class="st7" d="M401.84,441.75c9.54-2.53,19.49-5.07,29.61-2.34c12.6,3.4,34.59,22.38,34.59,22.38
			c-13.13-18.77-23.38-30.51-33.48-39.29C430.04,420.31,401.84,441.75,401.84,441.75z"/>
		<g>
			<path class="st3" d="M403.31,443.06c6.9-1.83,13.95-3.69,21.16-3.44c1.58,0.06,3.17,0.23,4.72,0.54
				c0.79,0.15,1.58,0.35,2.36,0.58c0.19,0.05,0.37,0.11,0.55,0.17c0.58,0.18-0.05-0.03,0.39,0.14c1.87,0.69,3.7,1.55,5.36,2.43
				c7.63,4.09,14.66,9.33,21.41,14.72c1.63,1.3,3.25,2.62,4.83,3.98c0.81,0.7,2.08,1.09,3.15,0.94c0.7-0.09,1.63-0.54,1.04-1.39
				c-5.73-8.19-11.7-16.23-18.23-23.81c-2.62-3.04-5.32-6-8.14-8.86c-1.27-1.29-2.57-2.56-3.9-3.8c-1.21-1.13-2.42-2.41-3.78-3.37
				c-3.66-2.58-8.41,0.82-11.55,2.74c-4.88,2.98-9.56,6.28-14.2,9.61c-2.99,2.15-5.96,4.32-8.89,6.55
				c-0.88,0.67,0.82,1.74,1.29,1.94c0.97,0.41,2.3,0.63,3.2-0.05c6.45-4.9,13.03-9.69,19.85-14.08c1.97-1.27,3.96-2.51,6.02-3.6
				c0.74-0.39,1.49-0.76,2.26-1.07c0.15-0.06,0.3-0.11,0.45-0.17c-0.01,0-0.33,0.07,0.07-0.01c0.11-0.02,0.26-0.04,0.36-0.08
				c0.35-0.14-0.53,0.03-0.12,0.02c-0.65,0.01-1.3-0.21-2-0.55c-0.82-0.41,0.02,0.07,0.3,0.31c0.67,0.59,1.33,1.18,1.98,1.78
				c1.24,1.14,2.46,2.31,3.66,3.5c2.62,2.6,5.14,5.29,7.57,8.07c6.95,7.93,13.25,16.4,19.29,25.03c1.39-0.15,2.79-0.3,4.18-0.45
				c-4.67-4.03-9.59-7.8-14.61-11.39c-8.24-5.89-17.21-11.82-27.53-12.9c-8.67-0.91-17.16,1.13-25.47,3.34
				c-0.97,0.26-1.2,1-0.46,1.71C400.67,442.89,402.26,443.34,403.31,443.06z"/>
		</g>
	</g>
</g>
<g id="Layer_46_copy_3">
	<g>
		<path class="st7" d="M369.15,167.9c-25.37-3.59-51.77-7.1-74.81,1.12c-28.7,10.25-69.5,57.11-69.5,57.11
			c19.05-44.5,36-72.8,54.69-94.47C284.19,126.27,369.15,167.9,369.15,167.9z"/>
		<g>
			<path class="st3" d="M368.82,166.57c-16.16-2.29-32.51-4.57-48.88-3.8c-13.22,0.62-26.29,3.37-37.85,9.97
				c-9.56,5.46-18.29,12.4-26.57,19.62c-7.71,6.73-15.08,13.87-22.19,21.23c-2.43,2.52-4.84,5.07-7.2,7.66
				c-1.13,1.23-2.38,2.44-3.39,3.77c-0.04,0.06-0.1,0.11-0.15,0.17c1.55,0.53,3.1,1.06,4.66,1.59
				c9.15-21.36,19.15-42.47,31.37-62.27c4.8-7.77,9.95-15.34,15.53-22.57c1.27-1.65,2.57-3.28,3.88-4.89
				c0.63-0.77,1.27-1.54,1.91-2.3c0.58-0.69,1.38-1.4,1.85-2.17c0.19-0.31-0.34,0.16,0.05-0.03c0.35-0.17-0.31,0.09-0.16,0.05
				c0.1-0.03,0.22-0.06,0.33-0.06c-0.67,0.06-0.17,0.03,0.19,0.01c0.23-0.01,0.7,0.11-0.14-0.02c0.17,0.02,0.34,0.03,0.51,0.04
				c0.32,0.03,0.63,0.08,0.95,0.13c0.17,0.03,0.35,0.07,0.52,0.09c0.37,0.05-0.34-0.07-0.33-0.07c0.15,0.03,0.3,0.06,0.45,0.09
				c0.84,0.19,1.68,0.4,2.51,0.63c1.03,0.29,2.05,0.6,3.07,0.93c0.54,0.17,1.07,0.35,1.61,0.53c0.7,0.23-0.33-0.12,0.37,0.13
				c0.34,0.12,0.69,0.24,1.03,0.36c5.62,1.99,11.16,4.23,16.66,6.53c12.48,5.23,24.79,10.85,37.04,16.58
				c7.16,3.35,14.23,6.89,21.4,10.21c0.11,0.05,0.22,0.11,0.32,0.16c0.77,0.38,2.54,0.74,3.2-0.05c0.71-0.86-0.7-1.65-1.29-1.94
				c-6.04-2.96-12.12-5.85-18.21-8.72c-12.32-5.8-24.69-11.48-37.22-16.82c-5.84-2.49-11.71-4.91-17.67-7.1
				c-4.4-1.62-8.89-3.24-13.51-4.11c-1.46-0.27-3.04-0.51-4.51-0.22c-0.59,0.12-1.14,0.31-1.6,0.71c-1.32,1.16-2.41,2.82-3.53,4.18
				c-5.65,6.88-10.87,14.09-15.73,21.54c-12.33,18.88-22.44,39.16-31.59,59.74c-1.39,3.12-2.75,6.25-4.09,9.38
				c-0.67,1.56,3.77,2.61,4.66,1.59c2.73-3.14,5.58-6.18,8.44-9.2c6.64-7,13.52-13.78,20.68-20.25c8.08-7.3,16.53-14.32,25.74-20.15
				c4.07-2.58,8.32-4.94,12.81-6.71c6.68-2.64,13.9-4.1,21.03-4.82c15.92-1.6,31.95,0.29,47.72,2.46c1.99,0.27,3.99,0.56,5.98,0.84
				c0.72,0.1,2.23,0.03,2.08-1.03C371.43,167.17,369.61,166.68,368.82,166.57z"/>
		</g>
	</g>
	<g>
		<path class="st7" d="M63.91,258.08c18.56-16.29,38.04-33.06,63-38.96c31.09-7.34,98.09,7.23,98.09,7.23
			c-47.24-24.33-81.3-37.22-112.14-44.05C105.18,180.6,63.91,258.08,63.91,258.08z"/>
		<g>
			<path class="st3" d="M66.15,259.02c11.87-10.42,23.9-20.89,37.7-28.7c6.83-3.87,14.08-7.08,21.67-9.16
				c5.08-1.39,10.24-2.14,15.47-2.47c11.63-0.74,23.33,0.03,34.9,1.21c10.94,1.12,21.83,2.7,32.66,4.58
				c3.71,0.64,7.42,1.33,11.11,2.05c0.18,0.04,0.78,0.15,0,0c0.14,0.03,0.28,0.05,0.41,0.08c0.32,0.06,0.64,0.13,0.96,0.19
				c0.52,0.1,1.04,0.21,1.56,0.32c0.62,0.13,1.23,0.26,1.84,0.39c0.08,0.02,0.15,0.03,0.23,0.05c0.68,0.15,2.02,0.41,2.57-0.26
				c0.5-0.62-0.19-1.37-0.74-1.66c-21.18-10.9-42.73-21.19-64.99-29.72c-8.93-3.42-17.98-6.56-27.14-9.3
				c-4.2-1.26-8.43-2.43-12.68-3.5c-2.05-0.52-4.11-1.02-6.17-1.49c-1.47-0.34-3.07-0.92-4.6-0.64c-2.88,0.52-5.18,3.67-6.89,5.77
				c-3.39,4.17-6.38,8.67-9.3,13.18c-7.43,11.47-14.27,23.33-20.98,35.24c-2.7,4.79-5.36,9.6-8,14.42
				c-1.35,2.46-2.95,4.93-4.06,7.51c-0.05,0.12-0.12,0.23-0.18,0.34c-0.72,1.35,3.95,2.94,4.83,1.29
				c3.18-5.97,6.44-11.89,9.74-17.79c6.43-11.53,13-22.99,20.01-34.18c3.11-4.97,6.3-9.92,9.78-14.65c1.29-1.76,2.62-3.49,4.07-5.13
				c0.56-0.63,1.13-1.24,1.74-1.82c0.24-0.22,0.48-0.44,0.73-0.65c0.12-0.1,0.24-0.2,0.36-0.29c0.1-0.08,0.6-0.41,0.16-0.13
				c0.21-0.13,0.42-0.25,0.63-0.37c0.08-0.05,0.18-0.07,0.26-0.12c0.26-0.14-0.51,0.12-0.08,0.03c0.43-0.09-0.37,0.02-0.23,0.02
				c0.5-0.01-1.16-0.01-0.94-0.14c0.17-0.1,1.25,0.28,1.45,0.33c0.58,0.13,1.17,0.27,1.75,0.4c4.08,0.95,8.14,1.99,12.18,3.12
				c8.54,2.38,16.97,5.12,25.29,8.15c21.12,7.7,41.59,17.11,61.67,27.18c2.88,1.44,5.75,2.91,8.62,4.38
				c0.61-0.64,1.21-1.28,1.82-1.92c-4.74-1.03-9.52-1.92-14.29-2.78c-10.57-1.9-21.2-3.51-31.88-4.71
				c-12.09-1.36-24.31-2.3-36.48-1.87c-5.27,0.19-10.58,0.63-15.74,1.7c-7.57,1.57-14.93,4.34-21.84,7.79
				c-14.36,7.18-26.89,17.46-38.95,27.94c-1.5,1.3-2.99,2.61-4.48,3.92c-0.83,0.73,0.77,1.72,1.29,1.94
				C63.86,259.45,65.32,259.75,66.15,259.02z"/>
		</g>
	</g>
</g>
<g id="Layer_42" class="st0">
</g>
<g id="Layer_21">
</g>
<g id="Layer_2">
	<g id="Layer_3">
	</g>
</g>
<g id="Layer_2_copy">
	<g id="Layer_3_copy">
	</g>
</g>
<g id="Layer_4">
	<g id="Layer_11">
	</g>
	<g id="Layer_10">
	</g>
	<g id="Layer_13">
	</g>
</g>
<g id="Layer_4_copy" class="st0">
	<g id="Layer_11_copy" class="st15">
	</g>
	<g id="Layer_10_copy" class="st15">
	</g>
	<g id="Layer_13_copy" class="st15">
	</g>
</g>
<g id="Layer_5" class="st0">
	<g id="Layer_12" class="st15">
	</g>
	<g id="Layer_14" class="st15">
	</g>
</g>
<g id="Layer_5_copy">
	<g id="Layer_12_copy">
	</g>
	<g id="Layer_14_copy">
	</g>
</g>
<g id="Layer_6">
	<g id="Layer_15">
	</g>
	<g id="Layer_16">
	</g>
</g>
<g id="Layer_51">
</g>
<g id="Layer_7_copy_2">
	<g id="Layer_17_copy_2">
	</g>
</g>
<g id="Layer_52">
	<g id="Layer_63">
	</g>
	<g id="Layer_56">
	</g>
	<g id="Layer_55">
	</g>
	<g id="Layer_57_copy">
		<g id="Layer_57">
		</g>
	</g>
	<g id="Layer_57_copy_3">
		<g id="Layer_57_copy_3_1_">
		</g>
	</g>
	<g id="Layer_57_copy_2">
		<g id="Layer_57_copy_2_1_">
		</g>
	</g>
</g>
<g id="Layer_6_copy">
	<g id="Layer_15_copy">
	</g>
	<g id="Layer_16_copy">
	</g>
</g>
<g id="Layer_50">
</g>
<g id="Layer_7">
	<g id="Layer_17">
	</g>
</g>
<g id="Layer_7_copy">
	<g id="Layer_17_copy">
	</g>
</g>
<g id="Layer_8">
	<g id="Layer_18">
	</g>
	<g id="Layer_18_copy" class="st0">
	</g>
	<g id="Layer_19">
	</g>
</g>
<g id="Layer_8_copy">
	<g id="Layer_18_copy_2_1_">
	</g>
	<g id="Layer_18_copy_2" class="st0">
	</g>
	<g id="Layer_22_copy">
	</g>
	<g id="Layer_19_copy">
	</g>
</g>
<g id="Layer_9">
	<g id="Layer_20">
	</g>
</g>
</svg>
