<?xml version="1.0" encoding="utf-8"?>
<!-- Generator: Adobe Adobe Illustrator 24.2.0, SVG Export Plug-In . SVG Version: 6.00 Build 0)  -->
<svg version="1.1" xmlns="http://www.w3.org/2000/svg" xmlns:xlink="http://www.w3.org/1999/xlink" x="0px" y="0px" width="1030px"
	 height="823.91px" viewBox="0 0 1030 823.91" style="enable-background:new 0 0 1030 823.91;" xml:space="preserve">
<style type="text/css">
	.st0{display:none;}
	.st1{fill:#2493B1;}
	.st2{fill:#02242C;}
	.st3{fill:#30386D;}
	.st4{fill:#2B3369;}
	.st5{fill:#8AF8D1;}
	.st6{fill:#140505;}
	.st7{fill:#2F376C;}
	.st8{display:inline;fill:#0D242B;}
	.st9{fill:#FFFFFF;}
	.st10{fill:#3B8FCF;}
	.st11{fill:#193268;}
	.st12{fill:#86DCF7;}
	.st13{fill:#89E5F7;}
	.st14{fill:#B4EDFE;}
	.st15{display:inline;}
	.st16{fill:#89F8D1;}
	.st17{display:inline;fill:url(#SVGID_1_);}
	.st18{display:inline;fill:url(#SVGID_2_);}
</style>
<g id="Layer_1" class="st0">
</g>
<g id="Layer_43" class="st0">
</g>
<g id="Layer_44">
	<path class="st1" d="M464.71,294.04c-6.25,15.26-1.78,34.26,10.61,45.13c-17.99,5.32-23.58,14.73-33.36,24.71
		c-3.97,4.04-6.11,10.42-9.23,15.15c-2.71,4.1-4.92,10.69-6.76,15.25c-10.94,27.17-17.6,52.34-16.2,81.59
		c0.08,1.61,0.22,3.34,1.24,4.59c1.23,1.49,3.34,1.84,5.26,2.08c26.3,3.26,52.8,4.98,79.3,5.14c6.58,0.04,13.39-0.06,19.38-2.79
		c0.73-0.33,1.49-0.74,1.9-1.44c0.61-1.03,0.29-2.32,0.12-3.51c-0.86-5.76,2.16-11.31,3.22-17.04c0.75-4.09,0.49-8.29,0.83-12.44
		c0.55-6.84,2.7-13.44,4.12-20.16c4.17-19.68,2.03-40.19-2.06-59.89c-1.09-5.24-2.34-10.53-4.89-15.24s-6.57-8.84-11.68-10.44
		c10.22,0.64,18.26-8.16,24.64-16.16c-6.38-2.31-12.35-5.97-18.73-8.28c-3.56-1.29-7.01-3.84-10.18-5.89
		c-5.17-3.35-9.48-5.87-14.2-9.84C480.76,298.47,471.11,295.25,464.71,294.04z"/>
	<g>
		<path class="st2" d="M406.19,580.64c3.24,3.03,6.66,6.06,10.85,7.52c15.49,5.37,372.89,1.04,382.15-4.82
			c4.34-2.74,7.7-6.76,10.91-10.75c23.43-29.12,42.01-53.09,57.96-86.89c-16.08,11.68-320.24,7.15-542.25-8.04
			C325.82,477.65,378.54,554.72,406.19,580.64z"/>
		<g>
			<path class="st3" d="M406.19,583.14c4.27,3.98,8.59,7.49,14.43,8.13c3.31,0.36,6.64,0.53,9.97,0.69
				c11.52,0.55,23.06,0.72,34.6,0.87c16.55,0.22,33.11,0.28,49.66,0.27c19.49,0,38.99-0.1,58.48-0.26c20.67-0.17,41.34-0.41,62-0.72
				c19.81-0.3,39.62-0.66,59.42-1.12c16.93-0.39,33.86-0.84,50.78-1.44c12.26-0.43,24.53-0.9,36.77-1.71
				c3.74-0.24,7.48-0.51,11.21-0.93c1.73-0.19,3.81-0.25,5.43-0.96c1.92-0.84,3.69-2.63,5.17-4.07c3.11-3.01,5.74-6.49,8.44-9.86
				c5.37-6.69,10.71-13.41,15.91-20.23c10.03-13.15,19.52-26.72,27.79-41.05c4.25-7.35,8.17-14.89,11.81-22.56
				c0.41-0.88-0.67-4.52,0-5c-3.3,2.34-8.81,2.49-12.65,2.97c-9,1.12-18.07,1.63-27.12,2.07c-29.53,1.43-59.12,1.58-88.68,1.56
				c-40.7-0.03-81.4-0.67-122.09-1.65c-45.87-1.1-91.74-2.63-137.58-4.59c-46.08-1.97-92.15-4.34-138.18-7.34
				c-5.31-0.35-10.62-0.7-15.94-1.06c0.18,0.01-0.27,4.61,0,5c6.35,9.28,12.87,18.44,19.44,27.56
				c12.81,17.76,25.9,35.37,39.86,52.25C391.77,567.99,398.59,575.98,406.19,583.14c-0.81-0.76,0.85-4.2,0-5
				c-14.63-13.77-27.01-30.13-39.17-46.05c-11.8-15.45-23.21-31.19-34.37-47.1c-2.29-3.27-4.58-6.54-6.83-9.83c0,1.67,0,3.33,0,5
				c45.64,3.12,91.33,5.6,137.03,7.65c46.13,2.08,92.28,3.72,138.44,4.93c41.64,1.09,83.3,1.85,124.96,2.02
				c31.17,0.13,62.38,0.05,93.53-1.16c10.11-0.39,20.24-0.88,30.32-1.85c5.35-0.52,11.27-0.82,16.35-2.75
				c0.57-0.21,1.13-0.45,1.63-0.8c0-1.67,0-3.33,0-5c-14.64,30.9-34.8,58.05-56.12,84.6c-2.6,3.23-5.15,6.55-8.16,9.41
				c-1.39,1.32-3.07,2.99-4.86,3.77c-0.62,0.27-1.33,0.37-1.99,0.48c-2.8,0.5-5.67,0.71-8.5,0.95c-10.78,0.89-21.61,1.33-32.42,1.76
				c-15.95,0.64-31.91,1.1-47.86,1.51c-19.3,0.49-38.6,0.88-57.91,1.21c-20.64,0.35-41.27,0.62-61.91,0.83
				c-19.94,0.2-39.87,0.33-59.81,0.38c-17.47,0.04-34.94,0.02-52.41-0.14c-12.92-0.12-25.84-0.28-38.75-0.72
				c-6.35-0.22-13.38,0.12-19.6-1.38c-4.52-1.09-8.27-4.63-11.57-7.71C407,578.89,405.34,582.34,406.19,583.14z"/>
		</g>
	</g>
	<g id="Layer_45">
		<g>
			<g>
				<path class="st4" d="M504.7,345.48c14.94,8.37,18.92,26.04,19.2,41.92c0.38,21.79-1.8,43.58-4.85,65.13
					c-1.64,11.59-3.96,23.09-4.79,34.78c-0.13,1.84,4.72,2.87,4.83,1.29c0.77-10.68,2.77-21.22,4.36-31.79
					c1.64-10.87,2.94-21.81,3.9-32.76c0.96-11,1.5-22.04,1.43-33.09c-0.06-8.97-0.74-17.88-3.91-26.36
					c-3.24-8.68-9.02-16.01-17.16-20.57c-0.9-0.51-2.43-1.02-3.42-0.45C503.32,344.14,503.96,345.07,504.7,345.48L504.7,345.48z"/>
			</g>
		</g>
		<g>
			<g>
				<path class="st4" d="M412.98,482.08c0.18-23.79,3.31-47.6,9.89-70.48c5.82-20.24,14.3-40.1,28.79-55.7
					c3.55-3.82,7.36-7.52,11.76-10.36c4.43-2.86,9.29-4.73,14.51-5.49c1.04-0.15,1.14-1.06,0.46-1.71
					c-0.85-0.82-2.29-1.08-3.42-0.92c-9.65,1.39-17.73,6.53-24.58,13.26c-7.51,7.38-13.7,15.9-18.72,25.15
					c-5.14,9.47-9.06,19.56-12.24,29.84c-3.48,11.24-6.12,22.74-7.96,34.36c-2.14,13.48-3.2,27.11-3.3,40.75
					C408.13,482.64,412.96,483.58,412.98,482.08L412.98,482.08z"/>
			</g>
		</g>
		<g>
			<g>
				<path class="st4" d="M462.15,293.69c-2.84,7.32-3.57,15.83-2.12,23.54c1.44,7.67,5.91,14.69,11.76,19.77
					c6.62,5.76,15.31,8.66,23.96,9.43c7.03,0.63,13.87-0.18,20.37-2.92c6.45-2.72,13.33-7.02,16.19-13.7
					c0.63-1.48-4.11-2.98-4.83-1.29c-2.32,5.43-7.73,9.09-12.86,11.6c-5.3,2.59-10.7,3.88-16.63,3.8c-7.38-0.1-15.23-2.05-21.1-6.69
					c-5.6-4.42-9.97-10.75-11.66-17.71c-1.93-7.96-1.19-16.9,1.77-24.52C467.58,293.45,462.81,292,462.15,293.69L462.15,293.69z"/>
			</g>
		</g>
		<g>
			<path class="st5" d="M537.08,309.62c-0.01,0,7.54-15.46,7.15-16.81c-1.27-4.41-4.07-13.88-5.12-14.4
				c-8.44-4.12-38.22-18.91-39.46-18.67c-5.67,1.14-18.71,3.78-19.39,4.73c-2.55,3.57-5.94,14.21-7.84,15.04
				c-8.16,3.58-19.65,10.87-19.65,10.87s10.2,2.13,12.76,2.96c4.91,1.59,12.52,4.89,16.92,7.84c12,8.04,23.71,16.76,37.16,22.55
				c17.44,7.51,22.28,7.26,22.28,7.26L537.08,309.62z"/>
			<g>
				<path class="st4" d="M539.5,310.27c1.45-3.19,3.03-6.33,4.45-9.53c0.85-1.91,1.74-3.84,2.39-5.84c0.61-1.85-0.16-3.42-0.7-5.23
					c-0.85-2.84-1.7-5.7-2.79-8.46c-0.35-0.89-0.69-1.87-1.26-2.64c-0.63-0.85-1.65-1.22-2.56-1.67c-4.21-2.06-8.41-4.14-12.63-6.2
					c-4.99-2.44-9.98-4.87-14.99-7.25c-3.28-1.56-6.57-3.25-9.98-4.49c-0.66-0.24-1.33-0.48-2.03-0.56
					c-1.17-0.14-2.39,0.26-3.52,0.49c-2.99,0.61-5.98,1.23-8.96,1.9c-2.49,0.56-5.01,1.1-7.42,1.95c-1.94,0.68-2.61,2.59-3.45,4.35
					c-1.28,2.68-2.36,5.45-3.64,8.13c-0.45,0.95-0.9,1.97-1.58,2.78c-0.1,0.12-0.21,0.25-0.33,0.35c0.08-0.07,0.02-0.01-0.29,0.12
					c-0.79,0.34-1.56,0.71-2.33,1.09c-5.51,2.68-10.82,5.8-16.03,9.03c-0.33,0.21-0.67,0.41-1,0.62c-1.46,0.93,0.69,2.19,1.6,2.38
					c4.35,0.91,8.84,1.66,13.06,3.06c3.65,1.2,7.27,2.78,10.7,4.52c3.77,1.91,7.19,4.37,10.67,6.75
					c7.9,5.39,15.81,10.82,24.31,15.24c7.39,3.85,15.24,7.08,23.22,9.51c2.62,0.8,5.63,1.83,8.42,1.7c0.58-0.03,1.66-0.24,1.48-1.07
					c-1.4-6.22-2.79-12.43-4.19-18.65c-0.2-0.91-0.41-1.82-0.61-2.73c-0.37-1.63-5.23-2.41-4.83-0.61
					c1.4,6.22,2.79,12.43,4.19,18.65c0.2,0.91,0.41,1.82,0.61,2.73c0.49-0.36,0.98-0.71,1.48-1.07c-0.46,0.02,0.18,0,0.26,0.02
					c-0.32-0.07-0.68-0.07-1.01-0.11c-0.25-0.04-0.51-0.09-0.76-0.13c-0.39-0.05,0.67,0.15,0.04,0.01
					c-0.19-0.04-0.37-0.08-0.56-0.12c-0.96-0.22-1.91-0.47-2.86-0.74c-7.18-2.07-14.53-5.06-21.34-8.55
					c-8.37-4.28-16.17-9.59-23.92-14.88c-3.54-2.42-7.03-4.97-10.83-6.98c-3.64-1.92-7.41-3.61-11.28-5.02
					c-5.04-1.84-10.36-2.84-15.6-3.93c0.53,0.79,1.07,1.58,1.6,2.38c3.81-2.42,7.72-4.71,11.68-6.88c1.5-0.82,3.01-1.62,4.54-2.38
					c1.25-0.62,2.89-1.07,3.97-1.97c1.57-1.31,2.39-3.86,3.2-5.66c1.15-2.59,2.2-5.25,3.53-7.76c0.24-0.45,0.57-0.87,0.78-1.32
					c0.03-0.06,0.31-0.36,0.09-0.17c-0.2,0.18,0.1-0.05,0.21-0.08c0.83-0.29,1.18-0.42,2.12-0.68c2.71-0.74,5.45-1.33,8.19-1.92
					c1.48-0.32,2.96-0.63,4.44-0.93c1.16-0.24,2.47-0.34,3.58-0.73c0.57-0.2-1.23-0.03-0.95,0c0.19,0.02-0.69-0.14-0.56-0.11
					c0.06,0.01,0.12,0.03,0.18,0.05c0.45,0.12-0.73-0.29,0,0c0.53,0.21,1.06,0.42,1.59,0.65c1.68,0.72,3.34,1.49,5,2.26
					c4.71,2.19,9.38,4.46,14.04,6.73c4.53,2.21,9.05,4.43,13.57,6.65c0.87,0.43,1.74,0.85,2.61,1.28c0.33,0.16,0.66,0.32,0.99,0.48
					c0.16,0.08,0.32,0.17,0.48,0.23c0.55,0.2-0.83-0.46-0.77-0.52c-0.07,0.07-0.08-0.23,0,0.04c0.27,0.82,0.79,1.64,1.11,2.52
					c0.49,1.33,0.94,2.68,1.37,4.03c0.47,1.47,0.92,2.95,1.36,4.43c0.17,0.59,0.35,1.17,0.52,1.76c0.08,0.28,0.15,0.56,0.24,0.83
					c0.1,0.29,0.03,0.09,0.04,0.02c-0.12,1.46-0.98,3.03-1.54,4.35c-1.63,3.87-3.43,7.66-5.25,11.44c-0.12,0.26-0.25,0.51-0.37,0.77
					C534.01,310.42,538.74,311.95,539.5,310.27z"/>
			</g>
		</g>
		<g>
			<g>
				<path class="st6" d="M435.4,378.16c-2.86-3.37-5.73-6.74-8.6-10.1c-7.64-8.96-15.29-17.9-22.96-26.84
					c-11.15-13-22.32-25.97-33.52-38.93c-13.32-15.41-26.68-30.78-40.08-46.12c-14.12-16.16-28.3-32.27-42.55-48.32
					c-13.75-15.49-27.57-30.91-41.53-46.22c-11.85-13-23.79-25.93-35.97-38.63c-8.75-9.12-17.57-18.23-26.94-26.73
					c-2.9-2.63-5.86-5.21-9.05-7.5c-11.91-8.53-26.63-12.88-41.16-13.71c-10.68-0.61-21.87,0.21-31.26,5.68
					c-14.26,8.31-27.21,18.88-38.2,31.18c-5.35,5.99-10.23,12.39-14.6,19.13c-1.07,1.65,3.6,3.25,4.49,1.89
					c8.98-13.83,20.12-26.21,32.94-36.59c6.39-5.17,13.18-9.82,20.31-13.9c3.92-2.24,8.02-3.4,12.48-4.07
					c13-1.97,26.95-0.29,39.1,4.7c3.7,1.52,7.26,3.36,10.61,5.55c0.84,0.55,1.66,1.11,2.48,1.7c-0.57-0.41,0.42,0.32,0.63,0.48
					c1.43,1.1,2.82,2.25,4.18,3.43c8.64,7.45,16.65,15.65,24.59,23.82c11.67,12,23.07,24.26,34.39,36.59
					c13.49,14.69,26.83,29.52,40.1,44.41c14.14,15.86,28.19,31.79,42.19,47.77c13.56,15.47,27.06,30.99,40.53,46.53
					c11.63,13.42,23.22,26.87,34.8,40.34c8.48,9.87,16.94,19.75,25.39,29.64c4.07,4.76,8.13,9.53,12.19,14.31
					c0.17,0.2,0.35,0.41,0.52,0.61c0.76,0.89,2.02,1.37,3.19,1.32C434.75,379.55,436.18,379.07,435.4,378.16L435.4,378.16z"/>
			</g>
		</g>
	</g>
</g>
<g id="Layer_46">
</g>
<g id="Layer_46_copy">
</g>
<g id="Layer_46_copy_2">
</g>
<g id="Layer_46_copy_3">
</g>
<g id="Layer_42" class="st0">
</g>
<g id="Layer_21">
</g>
<g id="Layer_2">
	<g id="Layer_3">
	</g>
</g>
<g id="Layer_2_copy">
	<g id="Layer_3_copy">
	</g>
</g>
<g id="Layer_4">
	<g id="Layer_11">
	</g>
	<g id="Layer_10">
	</g>
	<g id="Layer_13">
	</g>
</g>
<g id="Layer_4_copy" class="st0">
	<g id="Layer_11_copy" class="st15">
	</g>
	<g id="Layer_10_copy" class="st15">
	</g>
	<g id="Layer_13_copy" class="st15">
	</g>
</g>
<g id="Layer_5" class="st0">
	<g id="Layer_12" class="st15">
	</g>
	<g id="Layer_14" class="st15">
	</g>
</g>
<g id="Layer_5_copy">
	<g id="Layer_12_copy">
	</g>
	<g id="Layer_14_copy">
	</g>
</g>
<g id="Layer_6">
	<g id="Layer_15">
	</g>
	<g id="Layer_16">
	</g>
</g>
<g id="Layer_51">
</g>
<g id="Layer_7_copy_2">
	<g id="Layer_17_copy_2">
	</g>
</g>
<g id="Layer_52">
	<g id="Layer_63">
	</g>
	<g id="Layer_56">
	</g>
	<g id="Layer_55">
	</g>
	<g id="Layer_57_copy">
		<g id="Layer_57">
		</g>
	</g>
	<g id="Layer_57_copy_3">
		<g id="Layer_57_copy_3_1_">
		</g>
	</g>
	<g id="Layer_57_copy_2">
		<g id="Layer_57_copy_2_1_">
		</g>
	</g>
</g>
<g id="Layer_6_copy">
	<g id="Layer_15_copy">
	</g>
	<g id="Layer_16_copy">
	</g>
</g>
<g id="Layer_50">
</g>
<g id="Layer_7">
	<g id="Layer_17">
	</g>
</g>
<g id="Layer_7_copy">
	<g id="Layer_17_copy">
	</g>
</g>
<g id="Layer_8">
	<g id="Layer_18">
	</g>
	<g id="Layer_18_copy" class="st0">
	</g>
	<g id="Layer_19">
	</g>
</g>
<g id="Layer_8_copy">
	<g id="Layer_18_copy_2_1_">
	</g>
	<g id="Layer_18_copy_2" class="st0">
	</g>
	<g id="Layer_22_copy">
	</g>
	<g id="Layer_19_copy">
	</g>
</g>
<g id="Layer_9">
	<g id="Layer_20">
	</g>
</g>
</svg>
