<?xml version="1.0" encoding="UTF-8"?>
<svg id="Layer_2" data-name="Layer 2" xmlns="http://www.w3.org/2000/svg" viewBox="0 0 899.3 526.05">
  <defs>
    <style>
      .cls-1 {
        fill: #02242c;
      }

      .cls-1, .cls-2, .cls-3, .cls-4, .cls-5, .cls-6, .cls-7, .cls-8, .cls-9 {
        stroke-width: 0px;
      }

      .cls-2 {
        fill: #ff6b00;
      }

      .cls-3 {
        fill: #2493b1;
      }

      .cls-4 {
        fill: #8af8d1;
      }

      .cls-5 {
        fill: #140505;
      }

      .cls-6 {
        fill: #f7fdff;
      }

      .cls-7 {
        fill: #2b3369;
      }

      .cls-8 {
        fill: #30386d;
      }

      .cls-9 {
        fill: #fff;
      }
    </style>
  </defs>
  <g id="Layer_44" data-name="Layer 44">
    <path class="cls-3" d="M495.49,219.14c-6.25,15.26-1.78,34.26,10.61,45.13-17.99,5.32-23.58,14.73-33.36,24.71-3.97,4.04-6.11,10.42-9.23,15.15-2.71,4.1-4.92,10.69-6.76,15.25-10.94,27.17-17.6,52.34-16.2,81.59.08,1.61.22,3.34,1.24,4.59,1.23,1.49,3.34,1.84,5.26,2.08,26.3,3.26,52.8,4.98,79.3,5.14,6.58.04,13.39-.06,19.38-2.79.73-.33,1.49-.74,1.9-1.44.61-1.03.29-2.32.12-3.51-.86-5.76,2.16-11.31,3.22-17.04.75-4.09.49-8.29.83-12.44.55-6.84,2.7-13.44,4.12-20.16,4.17-19.68,2.03-40.19-2.06-59.89-1.09-5.24-2.34-10.53-4.89-15.24-2.55-4.71-6.57-8.84-11.68-10.44,10.22.64,18.26-8.16,24.64-16.16-6.38-2.31-12.35-5.97-18.73-8.28-3.56-1.29-7.01-3.84-10.18-5.89-5.17-3.35-9.48-5.87-14.2-9.84-7.28-6.11-16.92-9.33-23.32-10.54Z"/>
    <g>
      <path class="cls-1" d="M898.84,410.79c-16.08,11.68-320.24,7.15-542.25-8.04,0,0,49,71.6,77.1,99.15.45-1.3,2.22.62,8.08-1.65,1.18-.46,2.25-1.19,3.46-1.56,1.47-.44,3.29-.47,4.75.12,2.4-.53,4.86-.79,6.81-.23,1.02.29,1.84.67,2.69,1.01,1.06-.12,2.15-.16,3.32-.07,2.71.21,4.84,1.02,7.11,1.84,7.64,1.19,15.23,2.61,22.89,3.49,5.69.65,11.39,1.47,17.13,1.43,5.96-.05,11.83-.86,17.76-.98.29,0,.57.02.85.07,2.97-.23,5.92-.77,8.91-.91,3.43-.15,7.39-.7,11.43-1.03.28-.13.57-.23.88-.3,11.79-2.64,23.85-2.78,35.87-1.31.15.02.25.03.37.05-.25-.1,2.7.32,0,0,.05.02.19.05.52.12,1.27.24,2.39.48,3.65.83,2.48.68,4.92,1.07,7.49,1.31,5.67.53,11.63.21,17.21,1.62.76.19,1.41.5,1.94.9.14.01.29.02.44.04.26.04.52.07.78.11.59-.23,1.27-.36,2.02-.36,7.72-.02,15.4.52,23.11.7,2.73.06,5.45.07,8.17.08.42-.31.91-.53,1.46-.61,1.09-.16,2.18-.33,3.27-.5.99-1.12,2.48-1.83,4.48-1.72.93.05,1.85.07,2.77.07,10.05-5.05,22.61-7.24,33.21-4.53,5.5,1.4,10.53,4.4,15.95,6.07,3.15.97,6.32,1.92,9.54,2.63,2.91.64,6.09,2,9.05,2.22,2.2.16,3.75,1.17,4.67,2.53,18.99-.47,36.24-1,50.65-1.57.57-1.65,1.84-3.06,3.98-3.7,3.3-.98,6.86-3.13,10.25-3.24.71-.17,5.55-3.49,6.29-3.4,14.29,1.7,13.14,1.99,22.33,7.29.32-.09.58-.18.72-.28,4.34-2.74,7.7-6.76,10.91-10.75"/>
      <path class="cls-8" d="M898.84,408.29c-3.3,2.34-8.81,2.49-12.65,2.97-9,1.12-18.07,1.63-27.12,2.07-29.53,1.43-59.12,1.58-88.68,1.56-40.7-.03-81.4-.67-122.09-1.65-45.87-1.1-91.74-2.63-137.58-4.59-46.08-1.97-92.15-4.34-138.18-7.34-5.31-.35-10.62-.7-15.94-1.06.18.01-.27,4.61,0,5,14.3,20.89,29.22,41.4,44.77,61.38,5.58,7.17,11.26,14.26,17.14,21.18,2.68,3.15,5.4,6.26,8.19,9.31,1.12,1.22,2.25,2.43,3.4,3.63.89.93,2.76,3.37,3.69,3.46,0,0,.83-.29.9-.31.5-.12,1.18.06,1.7.04,2.95-.08,5.3-1.34,7.97-2.42,1.31-.53,2.67-.79,4.08-.61.5.07,1.08.36,1.56.39.92.07,2.12-.42,3.07-.49,2.92-.22,5.26,1.23,8.05,1.16,3.19-.08,5.8,1.1,8.81,1.88,3.34.87,6.99,1.14,10.4,1.69,6.82,1.11,13.67,2.03,20.54,2.72,7.98.81,15.74.06,23.72-.36,7.28-.38,14.54-1.05,21.81-1.76,3.86-.38,7.65-1.46,11.52-1.96s7.5-.75,11.27-.8c5.92-.09,12.17.02,18,1.09v-5c-.38-.01-.78-.08-1.15-.12.24.03-.34,4.91,0,5,4.47,1.18,9.04,2.1,13.67,2.41,5.06.33,10.7-.09,15.56,1.58.71.24,1.3.68,2.01.83.93.19,1.85-.19,2.8-.25,2.78-.17,5.63.06,8.41.15,5.41.19,10.82.48,16.23.57,1.19.02,2.38.03,3.58.04,1.38,0,2.48-.09,3.75-.38,1.06-.24,2.17-.34,3.23-.6,1-.25,1.43-.85,2.37-1.31,1.97-.97,4.14-.07,6.1-.67,2.4-.74,4.69-2.09,7.1-2.88,8.78-2.86,18.62-3.74,27.53-.93,4.69,1.48,9.02,3.88,13.69,5.4,4.77,1.56,9.67,2.66,14.49,4.04,2.08.6,4.4.61,6.41,1.34.74.27,1.42.65,1.99,1.19.12.11.61.85.8.95.47.23,2.08-.05,2.68-.07,5.34-.14,10.69-.28,16.03-.43,9.69-.28,19.37-.59,29.06-.96.55-.02,2.39.21,2.89-.11.42-.27.94-1.78,1.4-2.23,1.54-1.51,4.01-1.94,5.95-2.72,3.26-1.31,6.54-1.69,9.53-3.49,1.06-.64,2.32-1.65,3.56-1.89,1.85-.36,4.73.55,6.62.83,2.72.4,5.45.89,7.97,2.03,1.09.49,2.14,1.09,3.17,1.68,1.15.66,3.39,2.66,4.65,2.73.97.06,2.59-1.56,3.28-2.12,1.05-.85,2.05-1.77,3-2.74,1.92-1.94,3.64-4.05,5.35-6.17.83-1.03-.8-4.01,0-5-2.98,3.69-6.11,7.66-10.16,10.26-1.1.7-1.22.78-2.4.24-.66-.3-1.28-.75-1.91-1.12-1.18-.7-2.36-1.41-3.57-2.05-1.91-1.01-3.89-1.7-6-2.15-1.46-.31-2.95-.53-4.43-.74-1.71-.24-4.12-1-5.8-.64-2.21.48-3.85,2.69-6,3.34s-4.31.94-6.45,1.81-4.76,1.32-6.38,2.9c-.52.51-.79,1.51-1.28,1.93-.6.51-1.68.36-2.6.4-2.29.09-4.57.17-6.86.25-4.92.18-9.84.34-14.76.49-5.16.16-10.33.31-15.49.45-2.62.07-5.24.14-7.86.21-1.35.03-2.57.3-3.58-.41-.73-.52-1.22-1.16-2.09-1.52-1.93-.82-4.25-.76-6.29-1.33-2.45-.69-4.9-1.34-7.37-1.97-4.88-1.24-9.59-2.82-14.21-4.81s-9.06-3.69-14.03-4.24c-4.63-.51-9.35-.21-13.92.67s-8.84,2.87-13.35,4.4c-1.99.68-4.18-.09-6.18.73-.74.31-1.21,1-1.87,1.31-1.07.49-2.53.24-3.66.61-2.68.88-5.86.49-8.73.43s-5.94-.18-8.91-.3c-3.15-.13-6.3-.27-9.45-.34-1.4-.03-2.8-.07-4.21-.06-1.14,0-2.38.4-3.46.31-1.01-.09-1.79-.7-2.76-1-1.28-.39-2.66-.57-3.99-.74-3.04-.4-6.11-.46-9.17-.61-5.34-.26-10.53-1.15-15.69-2.52v5c.37.04.77.11,1.15.12-.11,0,.22-4.96,0-5-11.56-2.11-24.4-1.53-35.87.82-6.5,1.33-13.18,1.48-19.78,2.26-3,.35-6.01.29-9.03.49-3.83.25-7.65.63-11.49.71-6.78.14-13.56-.81-20.27-1.66-3.48-.44-6.95-.98-10.41-1.54s-7.04-.85-10.4-1.69c-3.02-.76-5.6-1.96-8.81-1.88-2.76.06-5.16-1.37-8.05-1.16-.97.07-2.12.54-3.07.49-.47-.02-1.1-.33-1.56-.39-1.4-.19-2.79.08-4.08.61-2.57,1.05-4.87,2.29-7.72,2.41-.59.03-1.37-.17-1.94-.04,0,0-.99.3-.9.31-.87-.11-2.64-2.37-3.5-3.27-2.64-2.75-5.2-5.57-7.71-8.43-5.84-6.64-11.44-13.5-16.93-20.43-10.98-13.86-21.52-28.08-31.84-42.43-5.81-8.08-11.58-16.19-17.2-24.4v5c45.64,3.12,91.33,5.6,137.03,7.65,46.13,2.08,92.28,3.72,138.44,4.93,41.64,1.09,83.3,1.85,124.96,2.02,31.17.13,62.38.05,93.53-1.16,10.11-.39,20.24-.88,30.32-1.85,5.35-.52,11.27-.82,16.35-2.75.57-.21,1.13-.45,1.63-.8.81-.58-.76-4.46,0-5h0Z"/>
    </g>
    <g>
      <path class="cls-1" d="M840.89,497.68c23.43-29.12,42.01-53.09,57.96-86.89"/>
      <path class="cls-8" d="M840.89,500.18c16.95-21.07,33.68-42.41,47.1-65.97,3.89-6.83,7.5-13.81,10.86-20.92.27-.57.02-1.87.02-2.5,0-.59,0-1.18,0-1.77,0-.17-.09-.59-.02-.73-5.91,12.49-12.64,24.58-20.14,36.18-7.18,11.1-15.02,21.75-23.12,32.19-4.83,6.22-9.76,12.38-14.7,18.52-.29.36-.02,2.04-.02,2.5,0,.59,0,1.18,0,1.77,0,.13.08.65.02.73h0Z"/>
    </g>
    <g id="Layer_45" data-name="Layer 45">
      <path class="cls-7" d="M535.48,270.58c14.94,8.37,18.92,26.04,19.2,41.92.38,21.79-1.8,43.58-4.85,65.13-1.64,11.59-3.96,23.09-4.79,34.78-.13,1.84,4.72,2.87,4.83,1.29.77-10.68,2.77-21.22,4.36-31.79s2.94-21.81,3.9-32.76c.96-11,1.5-22.04,1.43-33.09-.06-8.97-.74-17.88-3.91-26.36-3.24-8.68-9.02-16.01-17.16-20.57-.9-.51-2.43-1.02-3.42-.45s-.31,1.47.42,1.88h0Z"/>
      <path class="cls-7" d="M443.75,407.18c.18-23.79,3.31-47.6,9.89-70.48,5.82-20.24,14.3-40.1,28.79-55.7,3.55-3.82,7.36-7.52,11.76-10.36,4.43-2.86,9.29-4.73,14.51-5.49,1.04-.15,1.14-1.06.46-1.71-.85-.82-2.29-1.08-3.42-.92-9.65,1.39-17.73,6.53-24.58,13.26-7.51,7.38-13.7,15.9-18.72,25.15-5.14,9.47-9.06,19.56-12.24,29.84-3.48,11.24-6.12,22.74-7.96,34.36-2.14,13.48-3.2,27.11-3.3,40.75-.01,1.86,4.82,2.8,4.83,1.29h0Z"/>
      <path class="cls-7" d="M492.93,218.79c-2.84,7.32-3.57,15.83-2.12,23.54s5.91,14.69,11.76,19.77c6.62,5.76,15.31,8.66,23.96,9.43,7.03.63,13.87-.18,20.37-2.92s13.33-7.02,16.19-13.7c.63-1.48-4.11-2.98-4.83-1.29-2.32,5.43-7.73,9.09-12.86,11.6-5.3,2.59-10.7,3.88-16.63,3.8-7.38-.1-15.23-2.05-21.1-6.69-5.6-4.42-9.97-10.75-11.66-17.71-1.93-7.96-1.19-16.9,1.77-24.52.59-1.53-4.17-2.99-4.83-1.29h0Z"/>
      <g>
        <path class="cls-4" d="M567.86,234.72s7.54-15.46,7.15-16.81c-1.27-4.41-4.07-13.88-5.12-14.4-8.44-4.12-38.22-18.91-39.46-18.67-5.67,1.14-18.71,3.78-19.39,4.73-2.55,3.57-5.94,14.21-7.84,15.04-8.16,3.58-19.65,10.87-19.65,10.87,0,0,10.2,2.13,12.76,2.96,4.91,1.59,12.52,4.89,16.92,7.84,12,8.04,23.71,16.76,37.16,22.55,17.44,7.51,22.28,7.26,22.28,7.26l-4.8-21.38Z"/>
        <path class="cls-7" d="M570.28,235.37c1.45-3.19,3.03-6.33,4.45-9.53.85-1.91,1.74-3.84,2.39-5.84.61-1.85-.16-3.42-.7-5.23-.85-2.84-1.7-5.7-2.79-8.46-.35-.89-.69-1.87-1.27-2.64-.63-.85-1.65-1.22-2.56-1.67-4.21-2.06-8.41-4.14-12.63-6.2-4.99-2.44-9.98-4.87-14.99-7.25-3.28-1.56-6.57-3.25-9.98-4.49-.66-.24-1.33-.48-2.03-.56-1.17-.14-2.39.26-3.52.49-2.99.61-5.98,1.23-8.96,1.9-2.49.56-5.01,1.1-7.42,1.95-1.94.68-2.61,2.59-3.45,4.35-1.28,2.68-2.36,5.45-3.64,8.13-.45.95-.9,1.97-1.58,2.78-.1.12-.21.25-.33.35.08-.07.02-.01-.29.12-.79.34-1.56.71-2.33,1.09-5.51,2.68-10.82,5.8-16.03,9.03-.33.21-.67.41-1,.62-1.46.93.69,2.19,1.6,2.38,4.35.91,8.84,1.66,13.06,3.06,3.65,1.2,7.27,2.78,10.7,4.52,3.77,1.91,7.19,4.37,10.67,6.75,7.9,5.39,15.81,10.82,24.31,15.24,7.39,3.85,15.24,7.08,23.22,9.51,2.62.8,5.63,1.83,8.42,1.7.58-.03,1.66-.24,1.48-1.07-1.4-6.22-2.79-12.43-4.19-18.65-.2-.91-.41-1.82-.61-2.73-.37-1.63-5.24-2.41-4.83-.61,1.4,6.22,2.79,12.43,4.19,18.65.2.91.41,1.82.61,2.73l1.48-1.07c-.46.02.18,0,.26.02-.32-.07-.68-.07-1.01-.11-.25-.04-.51-.09-.76-.13-.39-.05.67.15.04,0-.19-.04-.37-.08-.56-.12-.96-.22-1.91-.47-2.86-.74-7.18-2.07-14.53-5.06-21.34-8.55-8.37-4.28-16.17-9.59-23.92-14.88-3.54-2.42-7.03-4.97-10.83-6.98s-7.41-3.61-11.28-5.02c-5.04-1.84-10.36-2.84-15.6-3.93l1.6,2.38c3.81-2.42,7.72-4.71,11.68-6.88,1.5-.82,3.01-1.62,4.54-2.38,1.25-.62,2.89-1.07,3.97-1.97,1.57-1.31,2.39-3.86,3.2-5.66,1.15-2.59,2.2-5.25,3.53-7.76.24-.45.57-.87.78-1.32.03-.06.31-.36.09-.17-.2.18.1-.05.21-.08.83-.29,1.18-.42,2.12-.68,2.71-.74,5.45-1.33,8.19-1.92,1.48-.32,2.96-.63,4.44-.93,1.16-.24,2.47-.34,3.58-.73.57-.2-1.23-.03-.95,0,.19.02-.69-.14-.56-.11.06.01.12.03.18.05.45.12-.73-.29,0,0,.53.21,1.06.42,1.59.65,1.68.72,3.34,1.49,5,2.26,4.71,2.19,9.38,4.46,14.04,6.73s9.05,4.43,13.57,6.65c.87.43,1.74.85,2.61,1.28.33.16.66.32.99.48.16.08.32.17.48.23.55.2-.83-.46-.77-.52-.07.07-.08-.23,0,.04.27.82.79,1.64,1.11,2.52.49,1.33.94,2.68,1.37,4.03.47,1.47.92,2.95,1.36,4.43.17.59.35,1.17.52,1.76.08.28.15.56.24.83.1.29.03.09.04.02-.12,1.46-.98,3.03-1.54,4.35-1.63,3.87-3.43,7.66-5.25,11.44-.12.26-.25.51-.37.77-.66,1.45,4.07,2.97,4.83,1.29Z"/>
      </g>
      <path class="cls-5" d="M466.18,303.26c-2.86-3.37-5.73-6.74-8.6-10.1-7.64-8.96-15.29-17.9-22.96-26.84-11.15-13-22.32-25.97-33.52-38.93-13.32-15.41-26.68-30.78-40.08-46.12-14.12-16.16-28.3-32.27-42.55-48.32-13.75-15.49-27.57-30.91-41.53-46.22-11.85-13-23.79-25.93-35.97-38.63-8.75-9.12-17.57-18.23-26.94-26.73-2.9-2.63-5.86-5.21-9.05-7.5C193.09,5.34,178.37,1,163.84.17c-10.68-.61-21.87.21-31.26,5.68-14.26,8.31-27.21,18.88-38.2,31.18-5.35,5.99-10.23,12.39-14.6,19.13-1.07,1.65,3.6,3.25,4.49,1.89,8.98-13.83,20.12-26.21,32.94-36.59,6.39-5.17,13.18-9.82,20.31-13.9,3.92-2.24,8.02-3.4,12.48-4.07,13-1.97,26.95-.29,39.1,4.7,3.7,1.52,7.26,3.36,10.61,5.55.84.55,1.66,1.11,2.48,1.7-.57-.41.42.32.63.48,1.43,1.1,2.82,2.25,4.18,3.43,8.64,7.45,16.65,15.65,24.59,23.82,11.67,12,23.07,24.26,34.39,36.59,13.49,14.69,26.83,29.52,40.1,44.41,14.14,15.86,28.19,31.79,42.19,47.77,13.56,15.47,27.06,30.99,40.53,46.53,11.63,13.42,23.22,26.87,34.8,40.34,8.48,9.87,16.94,19.75,25.39,29.64,4.07,4.76,8.13,9.53,12.19,14.31.17.2.35.41.52.61.76.89,2.02,1.37,3.19,1.32.65-.03,2.09-.5,1.31-1.42h0Z"/>
      <g id="Layer_68" data-name="Layer 68">
        <path class="cls-9" d="M79.6,56.87c-3.49,29.7-7.11,59.39-10.62,89.1-3.39,28.7-6.67,57.42-9.59,86.17-2.89,28.49-5.43,57.02-7.37,85.59-1.95,28.68-3.29,57.41-3.86,86.15-.58,29.51-.35,59.03.79,88.52.15,3.83.31,7.66.49,11.48.07,1.59,4.92,2.59,4.83.61-1.38-29.85-1.85-59.73-1.44-89.6.39-28.82,1.58-57.62,3.4-86.38,1.79-28.3,4.19-56.56,6.96-84.78,2.82-28.68,6.03-57.32,9.38-85.95,3.44-29.41,7.02-58.8,10.5-88.2.45-3.81.9-7.61,1.35-11.42.21-1.81-4.64-2.91-4.83-1.29h0Z"/>
      </g>
      <g id="Layer_65" data-name="Layer 65">
        <path class="cls-6" d="M867.63,515.27c-1.96-.19-3.92-.42-5.87-.7-1.05-.15-2.1-.31-3.14-.49-.45-.08-.9-.15-1.34-.23-.19-.03-2.05-.39-.93-.17,1.23.25-.64-.14-.92-.2-.44-.1-.89-.19-1.33-.3-.89-.2-1.77-.41-2.65-.63-2.2-.55-4.39-1.17-6.56-1.84-.87-.27-1.73-.55-2.6-.83-1.13-.36.22.07.37.13-.57-.21-1.14-.41-1.71-.62-1.99-.73-3.96-1.52-5.91-2.35-1.81-.77-3.6-1.59-5.38-2.45-.41-.2-.82-.4-1.22-.6.36.18,1.41.74-.25-.13-.88-.46-1.76-.93-2.65-1.39-4.97-2.55-10.06-4.7-15.68-5.28s-10.66.67-15.69,2.83c-7.2,3.08-13.61,5.49-21.23,7.13-1.83.4-3.68.74-5.53,1.04-1,.16-2,.31-3,.45-.43.06-.86.11-1.29.17-.2.02-2.02.21-.86.1-3.88.37-7.78.54-11.68.51-.87,0-1.73-.02-2.6-.05-.48-.01-3.1-.19-1.45-.05-2.02-.16-4.03-.32-6.04-.56-1.86-.22-3.72-.49-5.57-.81-.68-.12-3.2-.63-1.21-.21-.99-.21-1.97-.42-2.96-.66-1.82-.43-3.64-.91-5.44-1.43-.97-.28-1.93-.58-2.9-.89-.41-.13-.82-.27-1.23-.4,1.38.46.55.18-.34-.14-3.72-1.36-7.32-2.99-10.9-4.66-8.86-4.12-18.32-7.49-28.25-6.57-9,.83-17.61,4.18-26.46,5.92-8.73,1.71-15.94,2.55-24.71,2.86-4.27.15-8.55.14-12.82-.02-.47-.02-.95-.04-1.42-.06.21,0,1.15.08.07,0s-2.21-.15-3.32-.24c-2.21-.18-4.41-.4-6.61-.67-8.56-1.04-16.97-2.95-25.52-4.04-9.81-1.25-19.43-.92-29.21.43-8.74,1.21-17.2,2.87-25.49,3.39-4.37.27-8.74.37-13.12.32-2.11-.03-4.21-.09-6.32-.18.02,0-1.57-.08-.73-.03s-.75-.05-.73-.05c-1.3-.09-2.59-.18-3.89-.28-8.93-.72-17.81-1.97-26.63-3.53-2.09-.37-4.17-.76-6.25-1.16-.07-.01-1.65-.32-.61-.12s-.54-.11-.61-.12c-1.28-.26-2.55-.52-3.82-.79-5.09-1.07-10.26-2.31-15.51-2.03-8.78.46-16.87,4.86-25.18,7.22-16.45,4.67-31.42,6.21-48.4,5.65-1.09-.04-.06,0,.14.01-.46-.03-.92-.06-1.38-.09-1.07-.07-2.14-.16-3.21-.25-2.14-.19-4.28-.43-6.41-.71-2.63-.34-9.24-.11-8.34,4.13s7.54,6.12,10.98,6.56c17.52,2.25,35.35,1.87,52.75-1.21,8.63-1.53,17.09-3.82,25.38-6.66,3.6-1.23,7.11-2.83,10.67-3.61.89-.19.28-.11.05-.08.58-.08,1.24-.06,1.82-.05-1.44-.03.76.15,1.19.21.12.02,1.63.26.5.07-1.22-.21.66.14.94.2,1.1.23,2.21.47,3.31.69,18.42,3.8,36.99,6.69,55.83,7.12,9.33.21,18.63-.33,27.88-1.55,4.38-.58,8.73-1.34,13.1-2.01s7.66-1.15,11.94-1.35c2.25-.11,4.53-.14,6.78,0-1.3-.08,1.01.1,1.37.13,1.27.12,2.54.26,3.8.42,4.28.54,8.53,1.31,12.77,2.06,9.12,1.61,18.23,2.71,27.48,3.15,17.44.82,35.14-.94,52.07-5.21,4.25-1.07,8.43-2.49,12.74-3.3.28-.05,2.29-.35,1.52-.28.61-.06,1.24-.07,1.86-.08.08,0,1.57.11.6,0-1.1-.11,2.41.5.98.17-1.25-.29.56.18.84.26.2.06,1.98.62.86.24s.29.12.42.17c.56.22,1.11.44,1.67.67.83.35,1.66.71,2.48,1.08,1.92.86,3.82,1.78,5.74,2.65,4.24,1.93,8.59,3.54,13.01,5.01,15.9,5.29,33.19,7.36,49.88,5.96,8.21-.69,16.33-2.03,24.24-4.36,4.05-1.2,8.07-2.55,11.98-4.16,1.9-.78,3.76-1.66,5.66-2.44.41-.17,1.46-.59,1.57-.63.42-.13.85-.21,1.28-.31.57-.1.57-.12,0-.07l.88-.02c-.35-.05-.91-.11-1.25-.1-1.36.01.3-.16.32.13,0,.1-2.33-1-.14.02.38.18.78.37,1.17.53.99.39-.1-.07-.26-.15.38.19.76.4,1.14.6,1.27.67,2.55,1.33,3.83,1.98,3.88,1.97,7.82,3.79,11.87,5.38,8.88,3.49,18,6.04,27.36,7.84,4.02.77,8.07,1.35,12.14,1.75,2.62.26,9.25.16,8.34-4.13-.86-4.06-7.56-6.22-10.98-6.56h0Z"/>
        <path class="cls-6" d="M13.46,515.48c8.95.3,17.94-.36,26.78-1.82,4.22-.7,8.4-1.61,12.53-2.74,1.97-.54,3.93-1.14,5.88-1.77.94-.3,1.89-.6,2.85-.82.26-.06,1.36-.43,1.56-.3.13.09-1.94.08-1.03.13.36.02,1.54.03-.09-.05-2.42-.13,1.92.43-.74-.11-1.91-.39-.02.02.46.15.43.12.87.31,1.31.4.24.05-2.44-.86-1.44-.49.36.13.72.26,1.08.39,2.54.92,5.09,1.81,7.67,2.61,4.53,1.41,9.14,2.43,13.79,3.33,8.55,1.65,17.36,2.29,26.06,2.02,9.6-.31,19.21-1.73,28.43-4.43,1.41-.41,3.3-.99,3.74-2.66.42-1.55-.84-3.25-1.91-4.17-1.83-1.56-4.12-2.68-6.45-3.24s-4.94-1.08-7.21-.42c-3.83,1.12-7.73,2.04-11.66,2.72-1.93.33-3.87.59-5.82.84-.9.12,1.16-.13,1.03-.11-.29.05-.61.06-.9.09-.45.04-.9.08-1.35.12-1.05.09-2.1.16-3.16.22-1.96.1-3.92.15-5.88.15-.98,0-1.96-.02-2.94-.05-.45-.01-.9-.03-1.36-.05-.22,0-.46-.04-.68-.03.44-.02,2.41.14.86.04-3.91-.25-7.81-.71-11.67-1.39-.52-.09-1.04-.21-1.56-.29-.26-.04,2.56.52,1.51.3-.22-.05-.44-.09-.66-.14-1.03-.22-2.06-.45-3.09-.7-1.9-.46-3.8-.97-5.67-1.54-.94-.28-1.87-.59-2.8-.89-1.03-.33,1.7.59,1.45.5-.21-.08-.43-.15-.64-.22-.57-.2-1.14-.41-1.71-.62-2.93-1.06-5.8-2.02-8.85-2.62-3.53-.7-7.08-.81-10.62-.16-2.04.37-3.99,1.11-5.96,1.72-4.01,1.23-8.09,2.26-12.21,3.08-2.25.45-4.52.83-6.79,1.16-1.18.17-2.36.31-3.54.45-.91.11,1.07-.12.98-.1-.31.05-.63.06-.95.09-.63.06-1.26.12-1.89.17-4.74.38-9.49.48-14.25.32-1.53-.05-4.1.45-5.21,1.7-1.04,1.16-.9,2.77-.02,3.98,2.78,3.86,8.3,5.12,12.75,5.27h0Z"/>
      </g>
    </g>
    <g id="Layer_64" data-name="Layer 64">
      <path class="cls-2" d="M556.38,225.82c.82,4.89,7.32,7.76,11.49,5.08s4.25-9.78.15-12.56-10.67-.05-11.6,4.81c3.08-3.54,1.66-9.94-2.64-11.83-4.3-1.89-9.98,1.37-10.51,6.03-.53,4.67,4.26,9.13,8.88,8.25-3.98-2.21-9.45,2.36-8.42,6.79,1.03,4.43,7.19,6.43,10.94,3.85,3.75-2.57,4.42-8.41,1.72-10.44Z"/>
    </g>
  </g>
</svg>