<?xml version="1.0" encoding="UTF-8"?>
<svg id="Layer_2" data-name="Layer 2" xmlns="http://www.w3.org/2000/svg" viewBox="0 0 472 550.69">
  <defs>
    <style>
      .cls-1 {
        fill: #2d3365;
      }

      .cls-1, .cls-2 {
        stroke-width: 0px;
      }

      .cls-3 {
        fill: #193268;
        stroke: #fff;
        stroke-miterlimit: 10;
        stroke-width: 10px;
      }

      .cls-2 {
        fill: #bfeafb;
      }
    </style>
  </defs>
  <g id="Layer_9" data-name="Layer 9">
    <circle class="cls-3" cx="236" cy="314.69" r="231"/>
  </g>
  <g id="Layer_12" data-name="Layer 12">
    <g>
      <path class="cls-2" d="M298.71,143.05c-1.64-40.41-8.83-82.51-23.13-120.34,32.75-12.89,39.77-21.69,39.77-21.69l24.44,19.5s1.38,17.91,1.74,19.98c.35,2.06-1.84,2.74.22,3.09,4.55.76,16.04-14.5,18.09-10.31,11.35,23.16,30.97,72.34,30.97,72.34,0,0-12.48,24.83-25.18,37.58-9.22,9.24-20.75,15.94-29.47,25.65-.66.74-1.33,1.51-1.68,2.43-.47,1.26-.28,2.66-.14,4,1.09,10.07,3.6,17.5-.5,26.76-1.89,4.27-9.56,15.23-13.05,13.44-11.39-5.87.39-20.92-30.09-21.98-3.02-.11-7.35-1.09-11.97-14.39-3.78-10.87,6.54-29.11,10.49-34,2.35-2.9,8.36-1.73,9.51-2.06h0ZM343.46,72.68c1.45,12.94-5.75,31.65-4.47,43.08,5.8-4.71,14.11-15.2,19.77-21.69,1.26-1.44,2.6-3.16,2.36-5.07-.16-1.35-1.08-2.46-1.95-3.49-4.17-4.92-8.33-9.82-12.5-14.74-.52-.61-1.18-1.29-1.97-1.16-1.22.18-1.38,1.85-1.24,3.07h0Z"/>
      <path class="cls-2" d="M323.16,215.24c15.45,24.44,29.59,52.61,39.41,79.81,1.55,4.3,3.05,8.71,3.2,13.28.29,8.81-4.39,16.94-6.52,25.5-3.31,13.27-.14,27.99,8.34,38.72,1.97,2.49,4.34,5.7,2.83,8.5-1.91,3.55-7.7,2.11-10.75,4.75-3.84,3.31.97,11.43.62,16.5-.43,6.54-8.49,8.85-14.25,11.96-30.8,16.65-66.43,37.3-98.75,50.78-2.89,1.2-61.86-29.94-79.08-53.75-1.37-1.9-30.81,7.14-38.59,7.83-15.06-18.89-26.7-38.35-36.74-57.86,1.91,2.4,7.89-.17,9.11-2.99,1.22-2.82-.16-5.96-.42-9.03-3.35-40.75-16.18-130.88-16.18-130.88,0,0,15.72-.42,55.99,9.19,33.35,7.96,57.43,16.18,57.43,16.18,0,0,24.33-18.09,28.91-22.26,16.88-15.39,34.42-28.98,51.83-44.85,1.57,4.98-.33,6.6,2.81,10.78,3.14,4.18,11.78,7.62,16.99,7.18,2.34-.2,5.84.44,8.15.81,5.18.85,5.84,8.73,7.38,13.74,1.54,5.01,4.29,8.8,8.27,6.12h0Z"/>
      <path class="cls-1" d="M332.47,167.22c7.39,11.4,7.88,26.71,1.62,38.71-2.98,5.71-8.34,12.52-15.69,10.07-5.1-1.7-6.15-7.73-7.81-12.14-.91-2.43-2.06-5.02-4.22-6.59-2.97-2.14-7.14-1.67-10.6-1.91-3.79-.26-7.37-1.09-10.54-3.27-2.69-1.84-4.82-4.41-6.34-7.28-3.47-6.54-3.61-13.99-1.52-20.98,1.26-4.22,3.2-8.18,5.42-11.97,1.14-1.96,2.36-3.86,3.61-5.75.55-.84,1.11-1.67,1.67-2.5.29-.43.55-.96.99-1.25.57-.39,1.35-.37,2.01-.32,14.55,1.13,28.29,8.93,36.51,21.03.99,1.46,1.89,2.98,2.7,4.55.66,1.27-3.2,1.62-3.82.43-5.44-10.49-15.12-18.61-26.37-22.21-3.09-.99-6.29-1.63-9.53-1.86l1.92-.68c-6.63,9.81-14.34,21.23-12.28,33.69.79,4.77,3,9.53,6.64,12.78,1.67,1.48,3.65,2.63,5.82,3.18,2.71.67,5.58.49,8.35.71,2.91.23,5.89.73,8.35,2.41,1.67,1.15,2.91,2.78,3.83,4.58,1.74,3.41,2.39,7.28,4.23,10.65.68,1.24,1.73,2.57,2.91,3.01.37.13.48.17.73.18.4.04.78-.03,1.16-.16,1.08-.35,2.03-1.06,2.86-1.81,3.62-3.25,6.03-8.18,7.53-12.74,3.09-9.4,2.39-20.11-2.11-28.94-.56-1.1-1.19-2.18-1.87-3.21-.47-.73.97-1.13,1.41-1.18.78-.09,1.93.02,2.41.75v.02Z"/>
      <path class="cls-1" d="M340.47,44.27c2.71-2.26,5.87-4.06,8.82-5.97,1.25-.81,2.52-1.59,3.73-2.47,2.01-1.46,3.77-3.08,6.3-3.52.76-.13,1.96.05,2.41.75.88,1.36,1.49,2.98,2.25,4.43.85,1.63,1.69,3.26,2.53,4.9,1.64,3.24,3.25,6.5,4.82,9.77,3.12,6.5,6.1,13.07,8.92,19.71,3.84,9.04,7.33,18.24,10.72,27.46.44,1.2.9,2.39,1.29,3.6.73,2.29.58,4.45-.27,6.68-1.25,3.29-3.22,6.27-5.22,9.13-2,2.86-4.11,5.8-6.25,8.64-4.35,5.76-8.96,11.36-14.16,16.37-4.13,3.99-8.52,7.71-12.82,11.51-5.94,5.25-11.9,10.48-17.73,15.84-.29.27-.6.55-.89.83-.89.86-4.67.17-3.38-1.08,5.26-5.09,10.91-9.84,16.38-14.69,3.57-3.16,7.18-6.29,10.72-9.48,5.36-4.81,10.24-9.98,14.74-15.61,2.24-2.8,4.39-5.66,6.48-8.57,2.09-2.91,4.15-5.67,5.93-8.68,1.53-2.57,3.28-5.6,3-8.7-.11-1.23-.56-2.35-.97-3.5-3-8.33-6.15-16.63-9.52-24.82-5.46-13.29-11.59-26.31-18.23-39.05-.73-1.39-1.31-2.94-2.16-4.25l2.41.75c-.8.14-1.69.96-2.31,1.44-.7.53-1.38,1.09-2.11,1.59-1.26.86-2.55,1.68-3.84,2.5-2.76,1.78-5.69,3.48-8.22,5.57-.69.57-1.9.55-2.71.29-.58-.19-1.37-.78-.67-1.37l.02-.03Z"/>
      <path class="cls-1" d="M344.9,66.43c4.89,5.38,9.65,10.88,14.05,16.66,2.18,2.88,4.28,5.82,6.31,8.81,1.08,1.6,2.15,3.21,3.2,4.85.96,1.5,1.92,3.04,2.47,4.75,1.09,3.35.61,6.76-1.09,9.79-2.09,3.73-4.31,7.4-6.47,11.1-4.38,7.47-8.79,14.92-13.23,22.35-5.01,8.38-10.05,16.74-15.13,25.08-.69,1.14-4.53.6-3.79-.61,8.87-14.56,17.63-29.19,26.28-43.89,2.14-3.65,4.28-7.29,6.41-10.95,1-1.72,2.13-3.42,2.92-5.24.63-1.45.78-2.97.7-4.53-.18-3.78-2.55-6.89-4.57-9.94-2.02-3.05-4.03-5.95-6.16-8.85-4.76-6.45-9.97-12.53-15.37-18.45-1.2-1.32,2.58-1.84,3.42-.91h.01Z"/>
      <path class="cls-1" d="M363.39,89.73c-7.76,9.07-15.02,18.54-22.76,27.61-.58.68-1.61.77-2.44.63-.36-.06-1.92-.57-1.34-1.24,7.76-9.07,15.02-18.54,22.76-27.61.58-.68,1.61-.77,2.44-.63.36.06,1.92.57,1.34,1.24Z"/>
      <path class="cls-1" d="M341.76,20.57c1.69,19.23,3.54,38.52,3.24,57.85-.14,9.51-.83,19-2.37,28.39-1.54,9.38-3.9,19.08-6.08,28.57-2.47,10.7-4.75,21.46-5.59,32.42-.11,1.39-4.05,1.24-3.94-.1,1.52-19.59,7.61-38.38,11.1-57.63,3.49-19.25,3.42-38.17,2.28-57.3-.64-10.78-1.63-21.53-2.58-32.28-.11-1.29,3.82-1.33,3.94.1h0Z"/>
      <path class="cls-1" d="M338.08,20.98c-8.15-6.5-16.29-13-24.44-19.5l3.4.08c-9.14,7.81-19.56,14.14-30.73,18.62-3.2,1.28-6.46,2.42-9.76,3.41l.93-1.09c5.36,15.59,10.32,31.33,14.13,47.38,3.56,15.04,6,30.3,7.33,45.69.82,9.55,1.24,19.14,1.38,28.73.02,1.35-3.92,1.3-3.94-.1-.25-16.36-1.31-32.72-3.75-48.92-2.29-15.2-5.81-30.18-10.13-44.92-2.7-9.22-5.69-18.34-8.82-27.42-.22-.63.43-.94.93-1.09,11.15-3.34,21.74-8.51,31.24-15.25,2.7-1.92,5.31-3.95,7.82-6.1.85-.73,2.57-.58,3.4.08,8.15,6.5,16.29,13,24.44,19.5.71.57-.2,1.18-.74,1.33-.86.23-1.98.15-2.69-.42h0Z"/>
      <path class="cls-1" d="M283.15,32.36c.69-1.65,1.57-3.38,3.07-4.45,1.82-1.29,4.39-1.41,6.39-.45,1.99.96,3.06,2.99,3.98,4.89.97,2.02,1.89,4.06,2.74,6.13,2.83,6.86,4.85,14.03,5.96,21.37,1.11,7.34,1.39,14.82,1.68,22.25.38,9.64.93,19.26,1.02,28.91.11,11.65-.38,23.33-2.07,34.87-.21,1.41-4.13,1.18-3.94-.1,2.83-19.34,2.07-38.79,1.27-58.24-.58-14.09-.78-28.28-5.21-41.82-1.38-4.22-3.08-8.33-4.98-12.35-.51-1.07-.99-2.17-1.68-3.12-.3-.42-.63-.82-1.04-1.14-.15-.12-.31-.26-.49-.31-.19-.04.06,0,.09-.01-.66.14-1.25.97-1.59,1.48-.57.83-1.01,1.75-1.4,2.68-.5,1.19-4.38.8-3.79-.61h0Z"/>
      <path class="cls-1" d="M324.45,215.18c11.35,19.3,21.54,39.3,30.87,59.64,2.32,5.05,4.58,10.14,6.77,15.26,1.02,2.38,2.02,4.77,3,7.16.98,2.39,2.01,4.74,2.61,7.24,1.4,5.87-1.49,11.65-3.03,17.22-1.54,5.57-2.88,11.76-3.36,17.79-.82,10.19.73,20.84,6.31,29.6,1.35,2.12,3.02,3.89,4.58,5.84,1.55,1.95,2.11,4.16.56,6.2-1.55,2.04-3.91,2.86-6.21,3.5-2.13.6-4.47,1.16-5.56,3.3-.91,1.8-.52,3.97-.08,5.84.48,2.07,1.17,4.09,1.39,6.21.52,5.28-3.32,8.86-7.47,11.41-5.06,3.1-10.44,5.75-15.67,8.56-5.23,2.81-10.89,5.8-16.34,8.67-21.99,11.55-44.19,22.72-66.56,33.52-2.74,1.32-5.48,2.63-8.23,3.95-.79.38-2.01.39-2.79-.07-.68-.4-.72-1.03.03-1.4,22.19-10.59,44.2-21.55,66.02-32.89,10.88-5.65,21.69-11.39,32.47-17.21,2.55-1.38,5.14-2.7,7.62-4.18,2.16-1.29,4.37-2.84,5.74-5,2.61-4.1.35-8.56-.42-12.84-.34-1.89-.34-3.92.71-5.61,1.19-1.91,3.28-2.84,5.34-3.5,2.25-.72,5-1.08,6.42-3.21,1.59-2.38-.56-4.51-2.06-6.22-6.51-7.45-9.54-17.31-9.93-27.08-.24-5.76.43-11.53,1.57-17.17,1.14-5.64,3.03-11.37,4.64-17.05.83-2.9,1.06-5.74.24-8.66-.7-2.51-1.79-4.92-2.78-7.32-2.04-4.96-4.17-9.88-6.35-14.77-9.06-20.33-19.05-40.29-30.04-59.64-1.27-2.23-2.55-4.45-3.85-6.66-.7-1.19,3.13-1.59,3.82-.43Z"/>
      <path class="cls-1" d="M279.42,178.35c-17.02,16.63-35.42,31.79-53.86,46.8-4.63,3.77-9.26,7.51-13.89,11.27-2.19,1.78-4.39,3.57-6.57,5.35-1.05.85-2.07,1.73-3.13,2.56-1.41,1.11-2.77.69-4.34.16-12.15-4.09-24.43-7.78-36.81-11.07-12.39-3.28-24.74-6.14-37.25-8.61-6.33-1.25-12.68-2.39-19.05-3.44-3.18-.52-6.37-1.01-9.56-1.48-1.5-.22-3.02-.44-4.53-.65-.8-.11-1.59-.22-2.39-.33-.7-.09-.96-.3-1.16.54-.28,1.17.17,2.65.33,3.81.23,1.71.47,3.42.69,5.13.44,3.23.88,6.47,1.31,9.71.87,6.39,1.73,12.77,2.6,19.16,1.75,12.86,3.49,25.72,5.23,38.58,1.75,12.86,3.49,25.72,5.23,38.58.44,3.23.88,6.47,1.31,9.71.43,3.24,1.02,6.25,1.12,9.39.09,2.55-.29,5.39-2.01,7.39-1.42,1.64-3.55,2.59-5.69,2.78-2.14.19-4.42-.3-5.84-1.97l3.62-.67c6.6,11.89,13.54,23.58,20.82,35.05,3.59,5.66,7.27,11.28,11.03,16.83.89,1.32,1.75,2.67,2.71,3.95.35.47.76,1.02,1.26,1.34.85.54,1.76.26,2.68.05,3.3-.78,6.59-1.69,9.88-2.53,7.67-1.97,15.34-3.94,23.01-5.91.78-.2,2.08-.22,2.69.42.61.64-.11,1.17-.74,1.33-7.32,1.88-14.64,3.77-21.96,5.65-3.56.91-7.12,1.86-10.69,2.74-3.03.75-6.55,1.03-8.92-1.4-1.06-1.08-1.85-2.44-2.7-3.69-1.08-1.58-2.15-3.17-3.21-4.77-2.03-3.04-4.04-6.1-6.03-9.18-3.87-6-7.66-12.07-11.34-18.19-4.23-7.01-8.32-14.11-12.3-21.27-.72-1.31,2.99-1.41,3.62-.67,2.28,2.69,5.27-1.27,5.84-3.48,1.07-4.15-.19-8.87-.75-13.02-1.22-9-2.44-17.98-3.66-26.98-2.47-18.16-4.93-36.33-7.39-54.5-1.22-9-2.44-17.98-3.66-26.98-.62-4.59-1.24-9.18-1.87-13.76-.22-1.64-.6-3.54,1.03-4.58,1.46-.93,3.37-.69,4.99-.46,17.86,2.38,35.6,5.63,53.16,9.65,17.55,4.02,35.08,8.85,52.27,14.46,2.13.69,4.26,1.4,6.38,2.12l-2.71.29c20.72-16.99,41.82-33.55,61.82-51.4,5.44-4.85,10.79-9.8,16-14.89.89-.86,4.66-.18,3.38,1.08v-.02Z"/>
      <path class="cls-1" d="M171.16,411.61c3.62,4.55,7.95,8.56,12.35,12.35,5.35,4.62,10.97,8.93,16.71,13.05,11.04,7.93,22.58,15.29,34.58,21.68,2.45,1.31,4.93,2.56,7.45,3.71.55.25,1.1.5,1.66.74.09.03.18.08.26.11s.17.08.26.11c-.16-.06-.18-.08-.07-.03.23.09.45.18.68.27.86.34,1.72.66,2.61.93.64.19,1.29.77.67,1.37-.62.6-1.95.52-2.71.29-4.07-1.23-7.95-3.21-11.72-5.15-5.58-2.88-11.01-6.04-16.36-9.32-12.4-7.61-24.49-15.89-35.62-25.26-5.22-4.39-10.31-9.06-14.58-14.41-.55-.69,1.03-1.13,1.41-1.18.85-.1,1.85.04,2.41.75h0Z"/>
      <path class="cls-1" d="M307.51,192.61c-3.05-10.26-6.39-20.41-10.04-30.47-.52-1.43,3.37-1.65,3.82-.43,3.65,10.06,6.99,20.21,10.04,30.47.44,1.49-3.45,1.65-3.82.43Z"/>
      <path class="cls-1" d="M303.55,182.36c.25,2.05.45,4.13-.23,6.13-.55,1.62-1.84,3.01-3.44,3.63-2.45.94-4.82.19-7.1-.78-2.04-.87-4.05-1.81-6.04-2.8-.72-.36-.66-1.06.03-1.4.82-.4,1.98-.33,2.79.07,1.66.82,3.33,1.61,5.02,2.35.77.34,1.54.7,2.35.95.14.04.21.03.3.07.19.11.03-.03-.09.02.38-.16-.11.14.22-.04-.21.12.25-.12.24-.12,1.01-.54,1.75-1.79,2.02-2.93.41-1.72.19-3.52-.02-5.25-.1-.79,1.51-.96,1.99-.93.66.03,1.85.2,1.95,1.03h0Z"/>
      <path class="cls-1" d="M312.82,226.36c7.32,18.01,14.64,36.02,21.96,54.02,2.08,5.11,4.16,10.22,6.24,15.33.56,1.38-3.32,1.64-3.82.43-7.32-18.01-14.64-36.02-21.96-54.02-2.08-5.11-4.16-10.22-6.24-15.33-.56-1.38,3.32-1.64,3.82-.43Z"/>
      <path class="cls-1" d="M297.66,221.79c-.59,14.3-1.5,28.58-2.75,42.83-.36,4.06-.75,8.12-1.15,12.18-.14,1.4-4.07,1.22-3.94-.1,1.45-14.23,2.56-28.5,3.33-42.79.22-4.07.41-8.15.58-12.22.06-1.37,4-1.27,3.94.1h0Z"/>
      <path class="cls-1" d="M289.8,222.72c-2.99,10.78-6.71,21.34-11.19,31.59-.52,1.19-4.4.78-3.79-.61,4.41-10.08,8.1-20.46,11.04-31.07.39-1.41,4.26-1.06,3.94.1h0Z"/>
      <path class="cls-1" d="M280.09,204.95c-10.98,14.38-22.24,28.54-33.79,42.47-11.54,13.92-23.42,27.69-35.53,41.17-6.81,7.58-13.7,15.07-20.67,22.5-.85.9-4.63.25-3.38-1.08,12.36-13.15,24.46-26.55,36.29-40.19,11.81-13.62,23.35-27.48,34.6-41.56,6.32-7.9,12.55-15.88,18.69-23.93.53-.7,1.64-.76,2.44-.63.4.07,1.88.55,1.34,1.24h.01Z"/>
      <path class="cls-1" d="M161.37,394.82c1.78-16.16,4.87-32.17,9.25-47.82.26-.93.52-1.85.79-2.78.18-.61.28-.88-.06-1.42-.25-.4-.6-.77-.9-1.14-1.21-1.54-2.43-3.07-3.68-4.59-2.41-2.96-4.88-5.88-7.39-8.77-5.06-5.8-10.31-11.45-15.74-16.91-6.07-6.11-12.37-11.99-18.88-17.64-.68-.59.17-1.17.74-1.33.82-.23,2.01-.17,2.69.42,11.72,10.18,22.78,21.13,33.06,32.77,2.57,2.91,5.09,5.86,7.57,8.85,1.22,1.49,2.44,2.98,3.64,4.47.57.71,1.13,1.43,1.7,2.13.3.38.6.76.9,1.14.42.53.65.69.51,1.35-.42,2-1.14,3.97-1.67,5.93-.53,1.96-1.05,3.97-1.55,5.97-.99,3.99-1.9,8-2.73,12.03-1.86,9.07-3.29,18.21-4.31,27.41-.16,1.4-4.09,1.22-3.94-.1h-.01Z"/>
      <path class="cls-1" d="M331.27,366.76c-9.18,10.71-18.7,21.11-28.56,31.19-9.86,10.08-20.09,19.86-30.62,29.26-5.95,5.31-12,10.52-18.16,15.61-.69.57-1.9.55-2.71.29-.58-.19-1.37-.78-.67-1.37,10.82-8.97,21.36-18.29,31.58-27.96,10.22-9.66,20.01-19.58,29.52-29.86,5.39-5.83,10.67-11.76,15.84-17.79.58-.68,1.61-.77,2.44-.63.36.06,1.92.57,1.34,1.24h0Z"/>
    </g>
  </g>
</svg>