<?xml version="1.0" encoding="UTF-8"?>
<svg id="Layer_2" data-name="Layer 2" xmlns="http://www.w3.org/2000/svg" viewBox="0 0 495.82 472">
  <defs>
    <style>
      .cls-1 {
        fill: #2d3365;
      }

      .cls-1, .cls-2, .cls-3 {
        stroke-width: 0px;
      }

      .cls-4 {
        fill: #193268;
        stroke: #fff;
        stroke-miterlimit: 10;
        stroke-width: 10px;
      }

      .cls-2 {
        fill: #a3f4d2;
      }

      .cls-3 {
        fill: #bfeafb;
      }
    </style>
  </defs>
  <g id="Layer_9" data-name="Layer 9">
    <circle class="cls-4" cx="259.82" cy="236" r="231"/>
  </g>
  <g id="Layer_12" data-name="Layer 12">
    <g>
      <path class="cls-2" d="M160.4,328.2c3.27.2,12.57-5.41,15.43-6.88,11.44-5.89,17.16-5.12,30.09-7.12,7.58-1.17,25.74.22,37.44-1.6,8.68-1.35,63.96-24.43,104.39-32.38,26.89-5.28,55.08-6.91,80.4-11.88-.79-4.15-.85-9.38-1.65-13.53-.9-4.72-5.09-41.05-5.64-45.83-1.52-13.29-.26-23.03-4.61-45.87-42.59,4.57-86.54,22.21-121.81,41.04-16.33,8.71-29.92,24.94-48.78,25.78-8.48.37-17.4-.14-25.36-.04-10.16.12-18.75,0-28.8,1.39-41.51,5.78-54.64,11.26-54.64,11.26,0,0,4.39,56.57,5.87,60.07,3.82,9.05,13.5,25.33,17.67,25.59h0Z"/>
      <path class="cls-3" d="M154.96,322.14c.25,3.37,4.37,5.57,8.09,5.42,4.14-.16,12.9-5.73,21.97-9.77,7.16-3.19,17.91-2.92,53.53-4.49,7.91-.35,24.58-8.52,35.34-11.95,22.05-7.02,43.33-13.42,64.1-18.99,23.45-6.28,89.2-13.31,89.2-13.31l-1.75-8.02s-10.67.33-21.3,1.61c-30.33,3.63-62.29,9.66-72,11.95-28.48,6.74-67.53,20.94-85.01,27.79-8.03,3.15-11.28,3.13-20,3.41-5.97.19-19.84-1.15-25.61.32-19.7,4.99-28.91,8.95-46.57,16.04Z"/>
      <path class="cls-3" d="M416.87,173.28c-46.29,5.62-95.53,20.69-134,47.79-8.39,5.92-12.3,12.73-22.54,15.27-7.68,1.91-20.22.5-28.15.85-31.4,1.39-59.44,2.31-88.03,9.64-1.85.47-3.84.97-5.66.42-1.82-.55-3.16-2.64-2.08-4.09,2.09-2.54,5.83-3.35,9.25-3.97,11.21-2.05,22.42-4.1,33.62-6.15,9.92-1.82,19.61-1.73,29.67-2.63,22.05-1.99,34.82,2.07,50.22-3.44,4.18-1.49,9.11-6.38,12.63-8.91,26.71-19.24,57.95-31.79,89.79-42.81,18.52-6.41,34.69-8.86,54.66-12.12.44,4.18-.41,7.57.62,10.16Z"/>
      <path class="cls-1" d="M415.49,162.21c-18.41,2.49-36.56,6.44-54.22,11.83-17.72,5.41-34.93,12.22-51.35,20.35-16.42,8.13-31.85,17.52-46.41,28.06-3.91,2.84-7.82,5.18-12.82,6.01-5,.83-9.89.47-14.8.41-10.4-.14-20.81.13-31.18.84-20.77,1.41-41.41,4.54-61.59,9.31-2.53.6-5.05,1.22-7.56,1.87-.4.1-.77.31-.69.74,4.12,20.92,1.26,42.71,7.88,63.26,1.44,4.48,3.33,8.82,5.76,12.92,1.25,2.1,2.64,4.12,4.19,6.04,1.42,1.76,2.92,3.61,5.15,4.56,4.94,2.11,9.69-.5,13.72-3.07,4.24-2.7,8.82-4.86,13.7-6.4,9.98-3.14,20.59-3.99,31.07-4.29,5.34-.15,10.68-.15,16.03-.19,5.9-.04,11.51-.46,17.07-2.41,5.56-1.95,10.73-4.26,16.12-6.31,5.45-2.07,10.93-4.05,16.46-5.94,11.27-3.86,22.7-7.34,34.25-10.45,22.83-6.14,46.16-10.84,69.7-13.95,12.09-1.6,24.31-2.41,36.34-4.36,1.39-.22,2.78-.47,4.16-.74.67-.13,2.03-.14,2.53-.68.16-.16.17-.33.22-.52.14-.59.05-1.27.03-1.87-.17-7-.96-14.01-1.61-20.98-1.03-10.86-2.16-21.71-3.35-32.56-1.16-10.56-2.37-21.13-3.71-31.67-.49-3.8-.98-7.6-1.53-11.39-.31-2.11-.56-4.27-1.08-6.35-.16-.63-.34-1.12-1.03-1.46-.69-.34-1.97-.65-2.65-.2-.67.46-.23,1,.38,1.3-.49-.24-.67-.84-.56-.32.05.25.13.5.19.75.19.88.34,1.77.49,2.65.51,3.09.92,6.19,1.34,9.29,1.27,9.6,2.4,19.23,3.49,28.86,1.24,10.96,2.42,21.92,3.51,32.89.82,8.23,1.65,16.47,2.18,24.73.12,1.87.28,3.55.17,5.43,0,.07-.05.2-.03.27.07.23-.15,0,0,.07-.08-.03.6-.37.59-.35-.05.16-1.99.39-2.21.44-1.57.3-3.14.56-4.71.82-5.99.94-12.03,1.54-18.07,2.17-23.17,2.41-46.15,6.16-68.77,11.4-22.45,5.21-44.51,11.84-65.97,19.8-5.37,1.99-10.69,4.09-15.99,6.23-2.64,1.06-5.31,2.09-8.12,2.7-2.81.61-5.77.77-8.68.84-10.46.21-20.92-.05-31.35.96-10.44,1.01-20.16,3.06-29.04,7.63-2.21,1.14-4.23,2.49-6.34,3.76-1.7,1.03-4.4,2.79-6.59,2.36-1.03-.21-1.83-1.11-2.46-1.81-.85-.94-1.65-1.92-2.42-2.92-1.48-1.94-2.82-3.98-3.99-6.08-10.1-18.16-9.13-39.13-10.69-58.93-.42-5.25-1.03-10.48-2.04-15.66l-.69.74c20.16-5.21,40.8-8.76,61.64-10.55,10.4-.89,20.83-1.36,31.26-1.39,4.92-.01,9.84.21,14.76.13,4.62-.07,9.32-.57,13.56-2.35,4.25-1.78,7.79-4.8,11.44-7.39,3.66-2.59,7.54-5.19,11.41-7.68,7.63-4.89,15.49-9.47,23.56-13.72,16.11-8.49,33.05-15.71,50.54-21.5,17.53-5.8,35.61-10.2,53.97-13.09,2.32-.37,4.65-.71,6.98-1.02,2.48-.33-.1-2.03-1.53-1.84l.03-.02Z"/>
      <path class="cls-1" d="M424.68,260.1c-19.15,1.06-38.23,3.16-57.12,6.27-18.93,3.11-37.65,7.25-56.05,12.38-18.4,5.13-36.38,11.21-53.94,18.26-6.68,2.68-13.42,5.61-20.54,7.19-4.42.98-9.01.78-13.5.46-4.71-.34-9.38-.64-14.11-.4-18.11.92-34.74,8.02-50.99,14.82-2.15.9-4.31,1.8-6.47,2.68-.83.34-.07,1.06.38,1.3.74.39,1.84.53,2.65.2,16.32-6.7,32.71-14.63,50.68-16.71,4.55-.53,9.14-.68,13.71-.4,4.92.3,9.82.86,14.77.52,7.27-.51,14.27-3.34,20.91-5.95,8.17-3.21,16.29-6.48,24.58-9.43,8.93-3.17,17.97-6.1,27.1-8.79,18.23-5.36,36.8-9.75,55.59-13.11,18.73-3.36,37.68-5.7,56.7-7.01,2.4-.16,4.79-.31,7.19-.44.65-.04,1.39-.38.96-1.03-.43-.65-1.74-.85-2.5-.81Z"/>
      <path class="cls-1" d="M416.83,172.72c-21.13,2.23-41.99,6.47-62.1,12.89-20.11,6.41-38.85,14.68-56.61,24.91-8.94,5.15-17.56,10.76-25.83,16.78-3.27,2.37-6.44,5.06-10.05,7.02-1.97,1.07-3.83,1.36-6.06,1.42-18.57.46-37.14.48-55.68,1.88-17.99,1.36-35.81,4.11-53.54,7.22-2.91.51-5.82,1.03-8.73,1.57-.8.15-.83.77-.3,1.21.66.54,1.81.67,2.66.52,18.66-3.4,37.41-6.58,56.34-8.26,17.69-1.57,35.47-1.84,53.22-2.16,3.75-.07,7.81.27,11.51-.53,2.59-.55,4.75-1.98,6.83-3.43,3.94-2.74,7.73-5.66,11.67-8.41,4.3-3.01,8.7-5.9,13.19-8.68,17.37-10.75,36.06-19.71,55.65-26.62,19.78-6.97,40.47-11.83,61.45-14.55,2.63-.34,5.26-.64,7.9-.93.64-.07,1.41-.36.96-1.03-.41-.62-1.76-.89-2.49-.81h0Z"/>
      <path class="cls-1" d="M378.64,208.18c-17.88,7.99-34.95,17.4-51.56,27.37-8.27,4.96-16.45,10.07-24.58,15.22-4.06,2.57-8.1,5.16-12.16,7.73-4.06,2.58-7.95,4.82-12.61,6.01-10.35,2.67-21.32,1.1-31.79,3.19-.79.15-.85.77-.3,1.21.67.53,1.8.69,2.66.53,9.37-1.87,19.07-.85,28.49-2.48,4.7-.82,9.03-2.45,13.07-4.8,4.23-2.46,8.29-5.2,12.4-7.81,16.35-10.38,32.8-20.63,49.91-29.96,9.62-5.25,19.45-10.2,29.51-14.7.79-.36.1-1.05-.38-1.3-.74-.37-1.85-.55-2.65-.2h0Z"/>
      <path class="cls-1" d="M254.55,259.57c-12.7-.53-25.43-.7-38.15-.52-12.76.18-25.51.73-38.23,1.64-7.16.51-14.3,1.14-21.43,1.88-.63.06-1.42.37-.96,1.04.43.62,1.75.89,2.5.81,25.09-2.6,50.35-3.81,75.58-3.56,7.11.07,14.21.26,21.31.55.56.02,1.72-.04,1.57-.79-.14-.7-1.56-1.02-2.16-1.05h0Z"/>
      <path class="cls-3" d="M430.97,268.62c4.44-13.67,8.1-27.54,10.95-41.53,2.84-13.94,4.88-28.01,6.11-42.13.69-8,1.13-16.02,1.3-24.03.03-1-1.8-1.39-2.64-1.29-10.36,1.25-20.84,1.32-31.2,2.57-.63.08-1.43.36-.96,1.04.42.62,1.75.9,2.49.81,10.36-1.25,20.84-1.33,31.2-2.58l-2.64-1.29c-.31,14.21-1.44,28.41-3.38,42.53-1.94,14.06-4.67,28.04-8.21,41.86-2,7.83-4.26,15.6-6.77,23.31-.37,1.13,3.36,1.94,3.76.74h0Z"/>
      <path class="cls-1" d="M450.02,161.1c.72-.56,1.48-1.09,2.2-1.66.38-.3.75-.59,1.09-.93.12-.11.21-.24.31-.36.07-.09.19-.14.26-.23.18-.2.2-.47.14-.71-.11-.36-.46-.7-.77-.92-.43-.3-.93-.54-1.44-.7-.66-.2-1.38-.33-2.08-.28-.45.04-.9.14-1.22.44-.28.26-.45.63-.61.94-.21.4-.4.81-.58,1.22-.32.73-.57,1.51-.93,2.23-.12.24.24.59.4.71.34.26.84.44,1.26.51.67.12,1.75.2,2.09-.48.25-.51.43-1.05.65-1.57.29-.71.59-1.42.98-2.1l-.12.21c.11-.19.24-.41.42-.56l-.24.16s.05-.03.07-.04l-.33.11c.17-.06-.48.04-.26.03-.02,0-.57,0-.28,0-.58-.02-.5-.07-.3-.04.28.05-.57-.17-.25-.06.32.11-.43-.2-.19-.08.05.03.1.05.15.08.22.11-.34-.23-.16-.09.06.04.11.09.16.13l-.25-.23c.06.07.13.13.17.21l-.14-.24c.04.07.06.14.06.22v-.24c0,.06-.02.09-.05.15l.12-.21c-.07.09-.19.14-.26.24-.04.05-.08.11-.13.17-.1.12-.23.24-.35.35-.35.32-.72.61-1.09.9-.67.52-1.37,1-2.03,1.52-.23.18-.11.52.03.7.22.28.68.5,1.02.61.77.24,1.79.37,2.46-.14v.02Z"/>
      <path class="cls-3" d="M452.05,158.47c-3.02-12.84-3.22-26.4-.64-39.36,1.27-6.35,3.33-12.59,5.62-18.71,2.29-6.12,5.11-12.5,8.32-18.49,1.57-2.93,3.27-5.81,5.1-8.62.85-1.29,1.69-2.62,2.69-3.82.88-1.06,2.06-2.37,3.54-2.72,1.05-.25,2.02,1.35,2.5,2.01.96,1.3,1.72,2.7,2.33,4.16,1.27,2.99,2,6.15,2.73,9.28,1.66,7.12,3.77,14.14,6.37,21.02.63,1.65,1.33,3.4,1.15,5.18-.15,1.56-.92,3-1.84,4.31-2.09,2.96-4.65,5.67-7.22,8.3-10.48,10.7-21.34,21.09-30.87,32.52-1.16,1.39-2.31,2.81-3.43,4.23-.85,1.09,2.76,2.11,3.52,1.16,9.61-12.19,20.78-23.28,31.9-34.34,2.73-2.72,5.45-5.47,7.86-8.42,2.19-2.68,4.29-5.53,3.78-9-.27-1.82-1.07-3.55-1.71-5.28-.67-1.82-1.31-3.65-1.91-5.49-1.2-3.68-2.27-7.4-3.2-11.15-.82-3.29-1.46-6.63-2.55-9.85-1.02-3.01-2.48-6.27-4.94-8.55-2.68-2.47-6.79-2.63-9.69-.36-1.31,1.03-2.27,2.34-3.19,3.66-.97,1.41-1.9,2.84-2.8,4.28-7.36,11.89-12.72,24.87-16.42,38.03-3.72,13.24-4.11,27.42-1.76,40.85.29,1.64.62,3.28,1,4.9.27,1.13,4.04,1.55,3.74.26h0Z"/>
      <path class="cls-3" d="M133.53,242.88c-5.67,8.02-12.08,16.98-22.48,20.3-5.87,1.87-12.18,2.03-18.32,2.05-6.55.02-13.08-.26-19.62-.43-13.05-.34-26.14-.14-38.84,3.01-5.99,1.48-11.84,3.52-17.38,6.06-4.46,2.05-8.8,4.64-12.12,8.07-3.32,3.44-5.25,7.68-4.67,12.23.66,5.14,4.08,10.03,7.7,13.87,3.67,3.88,8.16,7,13.15,9.37,4.99,2.37,10.24,4.03,15.54,5.63,5.3,1.59,10.54,3.07,15.54,5.18,5,2.11,9.43,4.73,13.51,7.94,4.08,3.21,7.57,6.85,10.5,10.9,1.5,2.08,2.67,4.49,5.02,5.92,2.35,1.43,5.52,1.7,8.4,1.49,5.79-.43,11.61-1.46,17.27-2.67,5.7-1.22,11.31-2.76,16.81-4.61,11-3.71,21.51-8.6,31.19-14.64,2.34-1.46,4.63-2.98,6.87-4.56.68-.48-.7-1.19-1.05-1.31-.78-.26-1.77-.35-2.46.14-9.06,6.38-19,11.72-29.48,15.9-10.47,4.18-21.5,7.18-32.75,8.92-2.72.42-5.48.83-8.23,1-1.1.07-2.32.13-3.35-.28-1.08-.43-1.83-1.32-2.46-2.19-1.49-2.03-2.81-4.14-4.43-6.1-1.61-1.96-3.3-3.71-5.13-5.41-3.72-3.44-7.89-6.43-12.45-8.91-4.56-2.48-9.77-4.42-14.92-6.05-10.07-3.18-20.87-5.59-29.19-11.94-4.17-3.19-7.76-7.26-10.02-11.78-1.23-2.44-2.08-5.13-1.87-7.84.16-2.07.87-4.12,2.01-5.92,2.4-3.79,6.27-6.7,10.33-8.96,4.9-2.73,10.31-4.8,15.75-6.45,5.78-1.74,11.73-2.96,17.76-3.6,6.42-.68,12.88-.79,19.33-.7,6.44.1,12.88.38,19.33.49,6.44.11,12.62.19,18.84-.72,5.58-.82,10.72-2.7,15.2-5.87,4.13-2.93,7.47-6.69,10.46-10.57,1.47-1.91,2.87-3.86,4.25-5.82.81-1.15-2.82-2.13-3.51-1.17v.02Z"/>
    </g>
  </g>
</svg>