<?xml version="1.0" encoding="UTF-8"?>
<svg id="Layer_2" data-name="Layer 2" xmlns="http://www.w3.org/2000/svg" viewBox="0 0 472 472">
  <defs>
    <style>
      .cls-1 {
        fill: #2d3365;
      }

      .cls-1, .cls-2, .cls-3 {
        stroke-width: 0px;
      }

      .cls-4 {
        fill: #193268;
        stroke: #fff;
        stroke-miterlimit: 10;
        stroke-width: 10px;
      }

      .cls-2 {
        fill: #4990ad;
      }

      .cls-3 {
        fill: #bfeafb;
      }
    </style>
  </defs>
  <g id="Layer_9" data-name="Layer 9">
    <circle class="cls-4" cx="236" cy="236" r="231"/>
  </g>
  <g id="Layer_12" data-name="Layer 12">
    <g>
      <path class="cls-2" d="M323.79,381.32c-31.38-29.71-61.86-54.81-95.31-81.99-33-26.81-65.33-54.48-97.66-82.15-20.01-17.13-42.09-33.3-55.59-56.12-15.56-26.3-7.23-48.38,4.13-63.76,19.35-26.22,45.6-38.54,55.51-39.55,25.16-2.58,51.51,18.27,68.47,35.52,59.92,60.93,112.29,110.84,170.97,170.53,10.07,10.24,30.71,26.11,38.79,38.06,8.08,11.94,10.09,32.58,6.27,46.14-6.57,23.3-17.77,37.66-30.44,41.95-20.87,7.07-50.88,4.91-65.14-8.59v-.03Z"/>
      <path class="cls-3" d="M189.24,264.42c-25.96-20.2-51.2-41.43-75.62-63.59,7.39.84,20.2,4.21,27.15,1.89,15.97-5.36,49.21-17.94,71.98-54.64,4.01-6.47,14.22-31.82.38-47.51,11.01,13.56,68.13,74.04,68.13,74.04,0,0,7.55,26.57-18.1,57.34-33.08,39.69-76.47,33.11-73.91,32.48h0Z"/>
      <path class="cls-3" d="M72.38,109.25c-4.95-4.87-9.9-9.73-14.85-14.6-2.75-2.7-5.66-5.72-6.22-9.53-.3-2.04.13-4.08.69-6.02,1.84-6.36,5.18-12.2,9.67-16.9,3.81-4,8.39-7.13,12.38-10.93,2.14-2.04,9.27-5.01,19.43-8.6,1.77-.62,3.79.79,5.46,1.79,2.25,1.36,3.96,3.49,5.62,5.57,4.11,5.17,8.3,10.47,10.62,16.67.84,2.25,1.43,4.64,1.29,7.01-.1,1.82-.85,3.13-1.36,4.85-.84,2.83-5.11,26.74-39.67,32.68-1.98.34-4.06-1.39-3.05-1.98h-.02Z"/>
      <path class="cls-1" d="M114.98,63.96c9.2-5.57,19.51-9.76,30.59-8.96,5.61.41,10.99,2.23,16.22,4.44,5.03,2.13,9.89,4.74,14.52,7.73,9.34,6.01,17.75,13.38,25.66,21.26,3.98,3.95,7.83,8.04,11.66,12.16,4.36,4.69,8.81,9.2,13.42,13.63,9.96,9.58,19.94,19.13,29.55,29.11,9.61,9.97,19,20.13,28.65,30.03,9.84,10.08,20.07,19.76,30.07,29.67,9.92,9.82,19.8,19.69,29.78,29.47,19.61,19.22,39.2,38.52,59.28,57.23,2.52,2.35,5.05,4.67,7.59,6.99,1.16,1.06-2.04,4.31-3.31,3.15-19.89-18.11-38.98-37.16-58.31-55.88-19.83-19.2-39.21-38.89-59.05-58.1-9.87-9.56-19.23-19.66-28.68-29.64-9.45-9.98-19.02-19.79-28.91-29.32-4.75-4.57-9.52-9.11-14.24-13.7-4.28-4.15-8.25-8.57-12.34-12.92-7.62-8.1-15.51-16.02-24.21-22.9-8.7-6.88-18.18-12.56-28.46-16.23-5.4-1.93-10.77-2.95-16.43-2.55-5.33.37-10.47,1.91-15.27,4.12-2.44,1.12-4.81,2.39-7.1,3.79-.56.34-1.76,1.01-2.14.02-.33-.88.87-2.19,1.47-2.55v-.02Z"/>
      <path class="cls-1" d="M322.13,382.9c-9.59-9.02-19.47-17.71-29.16-26.6-4.9-4.48-9.73-9.02-14.75-13.36-5.02-4.33-9.88-8.5-14.83-12.73-19.98-17.03-40.16-33.81-60.33-50.61-20.17-16.8-40.05-33.38-59.84-50.36-9.93-8.52-19.81-17.12-29.6-25.81-4.58-4.06-9.41-7.64-14.22-11.36-4.84-3.75-9.04-8.15-13.14-12.74-7.9-8.84-15.15-18.76-18.83-30.18-3.46-10.76-3.05-21.67.11-32.15.75-2.5,1.62-4.94,2.54-7.37.37-.99,1.31-1.99,2.34-2.23.86-.2,1.49.32,1.13,1.25-3.83,10.1-6.19,20.38-4.15,31.45,2.2,11.92,8.75,22.46,16.37,31.69,3.79,4.59,7.82,9.22,12.21,13.22,4.38,4,9.33,7.19,13.9,10.89,4.97,4.01,9.64,8.45,14.45,12.67,4.81,4.22,9.77,8.53,14.69,12.76,19.58,16.89,39.4,33.47,59.25,50.01,19.88,16.57,39.81,33.1,59.55,49.84,9.91,8.4,20.09,16.62,29.57,25.54,9.48,8.92,19.32,17.56,28.95,26.39,2.39,2.19,4.77,4.4,7.13,6.62,1.15,1.09-2.06,4.32-3.31,3.15h-.02Z"/>
      <path class="cls-1" d="M410.55,295.37c8.81,8.8,12.73,20.98,12.94,33.15.23,13.15-3.57,26.17-9.67,37.4-5.72,10.53-13.58,19.63-24.15,25.13-9.8,5.09-21.18,7.23-32.31,6.42-11.13-.81-22.52-4.64-31.82-11.73-1.17-.89-2.3-1.83-3.4-2.82-1.16-1.04,2.02-4.3,3.31-3.15,8.35,7.49,18.85,12.05,29.63,13.63,10.41,1.52,21.31.4,30.88-3.59,4.47-1.86,8.87-4.44,12.4-7.53,4.06-3.56,7.42-7.96,10.33-12.69,6.36-10.33,10.41-22.41,11.05-34.84.6-11.53-2.06-23.66-9.53-32.91-.93-1.15-1.93-2.25-2.98-3.29-1.14-1.14,2.11-4.35,3.31-3.15v-.03Z"/>
      <path class="cls-1" d="M214.46,101.26c9.13,10.02,7.82,25.07,4.01,36.68-4.81,14.68-14.11,27.07-25.47,36.89-8.77,7.59-18.19,14.47-28.34,20.06-10.15,5.59-20.78,9.89-32.22,10.64-10.64.69-21.16-2.59-29.16-10.38-1.05-1.03-2.04-2.11-2.99-3.23-1.08-1.29,2.26-4.41,3.31-3.15,3.54,4.21,7.78,7.74,12.71,10.03,4.52,2.1,9.39,3.12,14.26,3.22,10.64.23,20.94-3.39,30.24-8.06,9.87-4.94,19-11.28,27.56-18.33.03-.02.35-.28.1-.08.09-.08.19-.15.28-.23.25-.21.49-.41.74-.62.52-.44,1.03-.87,1.55-1.32.91-.78,1.81-1.57,2.7-2.37,2.7-2.42,5.25-5,7.58-7.8,4.73-5.66,8.73-12.02,11.64-18.89,4.58-10.84,7.71-25.48.76-36.53-.76-1.21-1.62-2.33-2.58-3.38-1.11-1.22,2.19-4.38,3.31-3.15Z"/>
      <path class="cls-1" d="M278.71,166.24c7.9,8.67,6.98,21.58,4.28,31.86-3.27,12.39-9.74,24.21-18.05,33.62-3.77,4.27-8.04,8.12-12.36,11.8-4.34,3.7-8.84,7.21-13.61,10.33-9.17,6.03-19.36,10.91-30.41,12.28-11.04,1.37-21.83-1.48-31.18-7.93-1.31-.91-2.59-1.88-3.83-2.89s1.96-4.26,3.31-3.15c8.6,7.04,18.94,11.09,29.76,10.69,10.23-.38,19.9-4.36,28.51-9.54,9.05-5.45,17.09-12.24,24.65-19.62,8.26-8.07,14.52-18.8,18.3-29.94,3.25-9.55,5.48-22.09-.46-31.46-.66-1.04-1.41-2-2.24-2.91-1.11-1.22,2.19-4.38,3.31-3.15h0Z"/>
      <path class="cls-1" d="M378.12,280.16c3.66,15.13-2.32,31.09-10.34,43.15-9.28,13.96-22.9,25.72-39.09,30.29-8.86,2.5-18.32,2.54-27.31-.35-1.58-.51,1.25-3.99,2.77-3.51,15.21,4.89,30.87.68,43.24-8.27,11.92-8.61,21.62-21.57,26-36.29,2.13-7.16,2.92-14.98,1.11-22.46-.38-1.56,3.21-4.25,3.62-2.57h0Z"/>
      <path class="cls-1" d="M372.46,272.88c3.66,15.13-2.32,31.09-10.34,43.15-9.28,13.96-22.9,25.72-39.09,30.29-8.86,2.5-18.32,2.54-27.31-.35-1.58-.51,1.25-3.99,2.77-3.51,15.21,4.89,30.87.68,43.24-8.27,12.37-8.94,21.62-21.57,26-36.29,2.13-7.16,2.92-14.98,1.11-22.46-.38-1.56,3.21-4.25,3.62-2.57h0Z"/>
      <path class="cls-1" d="M116.24,63.29c6.08,8.38.67,19.59-4.14,26.66-3.32,4.87-7.4,9.16-11.92,12.85-4.25,3.47-9.02,6.41-14.22,8.16-4.69,1.57-10.17,2.14-14.85-.31-1.61-.85,1.4-4.23,2.77-3.51,3.68,1.93,7.8,1.87,11.52.88,4.58-1.21,8.56-3.51,12.34-6.35,3.77-2.84,7.51-6.55,10.57-10.66,2.68-3.59,5.07-7.74,6.27-12.36,1.02-3.93.97-8.59-1.65-12.2-1.02-1.4,2.39-4.43,3.31-3.15v-.02Z"/>
      <path class="cls-1" d="M97.56,46.51c1.92,3.39,1.65,7.24.64,10.78-1.29,4.57-3.83,8.72-6.59,12.45-3.09,4.18-6.71,7.97-10.67,11.27-3.75,3.12-7.83,5.98-12.36,7.85-3.7,1.52-8.26,2.79-12.22.99-1.62-.74,1.34-4.16,2.77-3.51,2.96,1.35,6.02.73,8.92-.28,1.53-.54,3.45-1.48,5.1-2.44.68-.39,1.62-1,2.51-1.6.94-.65,1.87-1.32,2.77-2.03,3.33-2.61,6.73-5.97,9.47-9.4,2.59-3.24,4.88-6.73,6.31-10.64,1.15-3.15,1.89-7.07.07-10.29-.87-1.54,2.59-4.43,3.31-3.15h-.03Z"/>
      <path class="cls-1" d="M112.83,65.23c-5.79-6.62-11.58-13.23-17.37-19.85-1.1-1.26,2.22-4.4,3.31-3.15,5.79,6.62,11.58,13.23,17.37,19.85,1.1,1.26-2.22,4.4-3.31,3.15Z"/>
      <path class="cls-1" d="M70.15,110.73c-6.48-6.29-12.95-12.57-19.44-18.85-1.15-1.11,2.09-4.34,3.31-3.15,6.48,6.29,12.95,12.57,19.44,18.85,1.15,1.11-2.09,4.34-3.31,3.15Z"/>
      <path class="cls-1" d="M95.85,45.79c-3.73-1.22-7.55-.33-11.12.96-4.43,1.61-8.61,4.31-12.52,7.33-3.9,3.03-7.91,6.92-11.13,10.94-2.93,3.65-5.52,7.55-7.06,11.98-1.22,3.51-1.86,7.84.44,11.28.97,1.44-2.45,4.43-3.31,3.15-2.38-3.55-2.19-7.84-1.15-11.71,1.37-5.06,4.2-9.65,7.26-13.75,3.62-4.86,7.91-9.19,12.56-13.02,4.28-3.53,8.99-6.69,14.11-8.87,4.49-1.9,9.78-3.4,14.7-1.79,1.58.52-1.25,4-2.77,3.51Z"/>
    </g>
  </g>
</svg>