<?xml version="1.0" encoding="UTF-8"?>
<svg id="Layer_2" data-name="Layer 2" xmlns="http://www.w3.org/2000/svg" viewBox="0 0 1610.42 882.07">
  <defs>
    <style>
      .cls-1 {
        fill: #246db1;
      }

      .cls-1, .cls-2, .cls-3, .cls-4, .cls-5 {
        stroke: #01242c;
        stroke-miterlimit: 10;
      }

      .cls-2 {
        fill: none;
      }

      .cls-6 {
        fill: #2d3365;
      }

      .cls-6, .cls-7, .cls-8, .cls-9, .cls-10, .cls-11 {
        stroke-width: 0px;
      }

      .cls-3, .cls-4, .cls-5 {
        stroke-width: 2px;
      }

      .cls-3, .cls-11 {
        fill: #b5edfe;
      }

      .cls-7 {
        fill: #01242c;
      }

      .cls-8 {
        fill: #4990ad;
      }

      .cls-4 {
        fill: #2493b1;
      }

      .cls-9 {
        fill: #bfeafb;
      }

      .cls-5 {
        fill: #193268;
      }

      .cls-10 {
        fill: #a4f4d2;
      }
    </style>
  </defs>
  <g id="Layer_8" data-name="Layer 8">
    <g>
      <path class="cls-9" d="M282.51,276.32c7.73-13.23,17.52-26.03,28.81-36.13-8.09-10.2-8.75-14.41-8.75-14.41l-11.23,2.14s-3.64,5.75-4.12,6.38c-.48.63.1,1.25-.62.99-1.58-.56-2.5-7.74-3.9-6.7-7.73,5.71-22.73,18.65-22.73,18.65,0,0-.47,10.56,1.28,17.1,1.28,4.75,3.74,9.06,4.77,13.88.08.37.15.74.1,1.12-.08.51-.39.94-.67,1.37-2.14,3.17-4.27,5.21-4.62,9.05-.16,1.77.32,6.82,1.74,6.84,4.66.08,3.61-7.07,13.47-1.95.98.51,2.52.96,6.36-2.67,3.14-2.96,3.12-10.92,2.74-13.27-.23-1.39-2.34-2.08-2.65-2.4h0ZM280.87,244.72c-2.77,4.07-3.82,11.63-6.27,15.22-1-2.62-1.76-7.62-2.4-10.81-.14-.71-.26-1.52.15-2.12.29-.42.78-.63,1.24-.82,2.2-.9,4.4-1.79,6.6-2.69.27-.11.6-.22.83-.04.36.28.11.87-.15,1.25h0Z"/>
      <path class="cls-9" d="M261.87,296.09c-9.26,5.41-18.78,12.29-26.74,19.64-1.26,1.16-2.52,2.37-3.38,3.87-1.66,2.9-1.63,6.46-2.48,9.71-1.32,5.04-4.95,9.39-9.56,11.46-1.07.48-2.39,1.13-2.41,2.34-.03,1.53,2.06,2.09,2.56,3.52.63,1.8-2.35,3.65-3.14,5.41-1.03,2.27,1.11,4.49,2.38,6.56,6.8,11.11,14.42,24.42,22.27,34.74.7.92,24.97,1.09,34.68-3.79.77-.39,8.5,7.93,10.85,9.55,8.15-3.62,15.31-8.04,21.98-12.77-1.04.46-2.47-1.47-2.36-2.64s1.11-1.97,1.74-2.95c8.34-13.04,28.49-40.91,28.49-40.91,0,0-4.91-2.96-19.4-6.98-12-3.33-21.11-4.9-21.11-4.9,0,0-4.49-10.43-5.2-12.65-2.61-8.18-5.75-15.89-8.44-24.33-1.39,1.39-1.07,2.27-2.81,3.1-1.74.83-5.1.43-6.67-.65-.71-.49-1.93-.9-2.73-1.19-1.8-.65-3.41,1.87-4.79,3.27-1.38,1.4-2.93,2.17-3.72.56h0Z"/>
      <path class="cls-6" d="M267.49,278.34c-4.38,2.49-7.27,7.53-7.42,12.67-.07,2.45.41,5.69,3.18,6.19,1.92.35,3.33-1.48,4.64-2.66.72-.65,1.55-1.31,2.52-1.45,1.32-.18,2.56.72,3.7,1.26,1.25.59,2.53.96,3.92.8,1.18-.13,2.31-.61,3.31-1.3,2.27-1.57,3.64-4.03,4.23-6.75.35-1.64.44-3.31.42-4.98-.01-.86-.06-1.72-.12-2.57-.02-.38-.05-.76-.08-1.14-.02-.2,0-.42-.09-.6-.11-.23-.36-.37-.58-.47-4.82-2.24-10.57-2.09-15.33.48-.58.31-1.13.66-1.67,1.04-.44.31.72,1.12,1.13.83,3.6-2.54,8.12-3.51,12.33-2.7,1.16.22,2.29.58,3.35,1.09l-.49-.57c.35,4.47.76,9.68-2.12,13.49-1.1,1.45-2.65,2.65-4.39,3.08-.79.2-1.63.23-2.41.02-.98-.26-1.86-.84-2.78-1.26-.97-.45-2-.81-3.08-.69-.74.08-1.42.41-2.03.84-1.16.83-2.06,2.01-3.24,2.8-.44.29-1.01.55-1.46.48-.14-.02-.18-.03-.26-.07-.13-.06-.24-.15-.34-.26-.28-.31-.45-.72-.58-1.12-.57-1.74-.45-3.82-.12-5.62.7-3.7,2.83-7.16,5.83-9.31.38-.27.77-.51,1.16-.74.28-.16-.11-.55-.24-.65-.23-.17-.62-.34-.9-.18h0Z"/>
      <path class="cls-6" d="M286.89,235.75c-.46-1.24-1.14-2.41-1.73-3.58-.25-.49-.52-.99-.74-1.5-.38-.85-.65-1.71-1.37-2.31-.22-.18-.63-.33-.9-.18-.52.3-1,.73-1.5,1.08-.56.39-1.12.79-1.68,1.19-1.1.79-2.19,1.59-3.27,2.4-2.15,1.61-4.27,3.28-6.35,5-2.83,2.34-5.58,4.79-8.3,7.26-.35.32-.71.64-1.05.97-.64.63-.98,1.39-1.11,2.29-.19,1.33-.1,2.68.03,3.99.12,1.32.27,2.68.44,4.01.35,2.71.82,5.41,1.57,8.03.6,2.08,1.33,4.11,2.01,6.16.95,2.83,1.9,5.65,2.8,8.49.04.14.09.29.13.44.13.45,1.45.9,1.26.25-.76-2.65-1.71-5.25-2.57-7.86-.57-1.7-1.15-3.39-1.71-5.1-.84-2.58-1.47-5.18-1.89-7.87-.21-1.34-.38-2.68-.52-4.03-.14-1.35-.3-2.64-.33-3.97-.03-1.14-.04-2.46.6-3.45.26-.39.6-.69.93-1,2.44-2.25,4.92-4.46,7.45-6.6,4.11-3.47,8.37-6.72,12.75-9.8.48-.33.94-.75,1.44-1.04l-.9-.18c.23.19.36.62.48.9.13.3.24.61.39.91.24.51.51,1.02.77,1.53.56,1.09,1.19,2.19,1.61,3.34.12.31.5.53.81.58.22.04.57-.02.46-.34h0Z"/>
      <path class="cls-6" d="M281.53,242.37c-2.51.92-5,1.91-7.43,3.05-1.21.57-2.4,1.18-3.58,1.82-.63.34-1.26.69-1.88,1.05-.57.33-1.15.67-1.63,1.14-.94.92-1.4,2.15-1.4,3.48,0,1.62.05,3.25.07,4.88.06,3.29.13,6.57.21,9.86.09,3.7.2,7.41.33,11.11.02.5,1.33,1.02,1.31.48-.22-6.47-.38-12.94-.51-19.42-.03-1.61-.06-3.21-.08-4.82-.01-.76-.07-1.53,0-2.28.06-.6.28-1.13.59-1.64.73-1.23,2.04-1.85,3.22-2.51,1.19-.66,2.34-1.27,3.53-1.86,2.66-1.31,5.4-2.4,8.17-3.42.62-.23-.49-1.08-.92-.92h0Z"/>
      <path class="cls-6" d="M271.51,246.85c.84,4.43,1.46,8.9,2.29,13.33.06.33.37.55.66.65.12.05.71.15.65-.17-.84-4.43-1.46-8.9-2.29-13.33-.06-.33-.37-.55-.66-.65-.12-.05-.71-.15-.65.17Z"/>
      <path class="cls-6" d="M290.71,227.58c-3.97,6.13-8,12.26-11.35,18.78-1.65,3.21-3.13,6.51-4.31,9.93-1.19,3.42-2.17,7.09-3.17,10.66-1.13,4.02-2.32,8.04-4.01,11.86-.21.48,1.06,1.14,1.27.67,3.01-6.83,4.43-14.22,6.76-21.28,2.33-7.07,5.73-13.39,9.5-19.59,2.13-3.49,4.36-6.92,6.58-10.34.27-.41-.97-1.13-1.27-.67h0Z"/>
      <path class="cls-6" d="M291.81,228.38c3.74-.71,7.49-1.42,11.23-2.14l-1.09-.58c1.5,4.26,3.68,8.25,6.43,11.75.79,1.01,1.62,1.97,2.49,2.9l-.1-.53c-4.48,4.26-8.86,8.63-12.93,13.32-3.81,4.39-7.31,9.06-10.48,13.98-1.96,3.05-3.81,6.19-5.56,9.37-.25.45,1.01,1.14,1.27.67,3-5.43,6.26-10.72,9.92-15.7,3.44-4.68,7.23-9.06,11.23-13.22,2.5-2.6,5.08-5.12,7.69-7.6.18-.17.03-.39-.1-.53-2.94-3.12-5.38-6.76-7.19-10.72-.51-1.13-.98-2.28-1.39-3.45-.14-.4-.71-.66-1.09-.58-3.74.71-7.49,1.42-11.23,2.14-.33.06-.15.43,0,.58.23.23.6.41.93.34h0Z"/>
      <path class="cls-6" d="M307.2,242.06c.07-.67.11-1.41-.18-2.04-.35-.76-1.14-1.26-1.95-1.3-.8-.04-1.51.45-2.13.92-.67.5-1.32,1.02-1.96,1.56-2.12,1.79-4.04,3.82-5.7,6.08-1.66,2.26-3.09,4.71-4.5,7.15-1.84,3.16-3.73,6.28-5.48,9.49-2.11,3.88-4.04,7.88-5.57,12.05-.19.51,1.1,1.14,1.27.67,2.55-6.98,6.26-13.36,9.99-19.72,2.7-4.61,5.29-9.33,9.11-13.06,1.19-1.16,2.46-2.24,3.78-3.24.35-.27.7-.55,1.09-.74.17-.09.35-.16.53-.19.07-.01.14-.03.21-.02.07.02-.02-.01-.03-.02.18.16.22.55.24.78.03.38,0,.77-.03,1.15-.05.49,1.25,1.05,1.31.48h0Z"/>
      <path class="cls-6" d="M261.48,295.84c-7.04,4.42-13.85,9.28-20.44,14.42-1.64,1.28-3.26,2.57-4.87,3.89-.75.61-1.49,1.23-2.23,1.86s-1.49,1.23-2.12,1.95c-1.49,1.71-1.61,4.17-2.11,6.31-.51,2.14-1.19,4.45-2.11,6.56-1.56,3.56-3.95,6.85-7.28,8.78-.81.47-1.65.76-2.49,1.13s-1.41,1.01-1.28,1.97.73,1.66,1.34,2.29c.57.59,1.21,1.19,1.17,2.1-.03.76-.54,1.42-1.02,1.97-.52.6-1.1,1.16-1.55,1.83-1.11,1.67-.53,3.56.33,5.16,1.05,1.95,2.28,3.8,3.44,5.68,1.16,1.88,2.42,3.9,3.64,5.84,4.91,7.82,9.96,15.55,15.14,23.18.63.93,1.27,1.87,1.91,2.8.18.27.57.49.9.48.29-.01.41-.22.24-.47-5.15-7.53-10.18-15.16-15.08-22.87-2.44-3.85-4.85-7.71-7.23-11.6-.56-.92-1.15-1.83-1.67-2.77-.46-.82-.88-1.74-.93-2.71-.1-1.84,1.42-2.93,2.42-4.22.45-.57.81-1.25.77-2.01-.04-.85-.53-1.54-1.07-2.13-.59-.64-1.39-1.26-1.46-2.23-.08-1.08.98-1.41,1.76-1.71,3.39-1.33,6.11-4.08,7.98-7.28,1.1-1.88,1.92-3.94,2.57-6.03.64-2.09,1.07-4.35,1.57-6.54.25-1.12.69-2.11,1.47-2.94.67-.71,1.45-1.32,2.19-1.95,1.53-1.29,3.08-2.56,4.65-3.8,6.5-5.18,13.23-10.07,20.17-14.57.8-.52,1.6-1.03,2.41-1.54.44-.27-.71-1.1-1.13-.83Z"/>
      <path class="cls-6" d="M282.33,291.6c2.43,8.62,5.57,17.01,8.74,25.34.8,2.09,1.6,4.18,2.39,6.27.38.99.76,1.98,1.13,2.97.18.47.35.95.54,1.42.25.62.75.73,1.35.83,4.58.82,9.14,1.78,13.65,2.91,4.52,1.13,8.95,2.39,13.35,3.81,2.23.72,4.45,1.48,6.66,2.27,1.1.4,2.2.81,3.3,1.22.52.2,1.04.4,1.55.6.27.11.55.21.82.32.24.1.36.07.27.39-.12.44-.53.86-.79,1.22-.38.53-.76,1.06-1.13,1.59-.72,1-1.43,2.01-2.15,3.02-1.41,1.98-2.83,3.96-4.24,5.95-2.85,3.99-5.7,7.98-8.54,11.97-2.85,3.99-5.7,7.98-8.54,11.97-.72,1-1.43,2.01-2.15,3.02-.72,1.01-1.44,1.91-2.03,2.94-.48.84-.87,1.86-.68,2.83.16.81.66,1.5,1.31,1.95s1.46.69,2.2.39l-1.03-.87c-4.21,2.79-8.5,5.46-12.86,7.99-2.15,1.25-4.32,2.47-6.5,3.65-.52.28-1.03.58-1.56.84-.2.1-.42.21-.64.22-.37.03-.61-.23-.86-.47-.91-.85-1.79-1.75-2.68-2.62-2.08-2.04-4.16-4.07-6.24-6.11-.21-.21-.62-.45-.93-.34-.31.1-.18.41,0,.58,1.99,1.94,3.97,3.89,5.96,5.84.97.95,1.93,1.9,2.9,2.84.83.8,1.89,1.52,3.08,1.13.53-.17,1.02-.49,1.51-.75.62-.34,1.25-.68,1.87-1.02,1.19-.65,2.37-1.32,3.55-1.99,2.3-1.31,4.58-2.66,6.84-4.05,2.59-1.59,5.16-3.23,7.7-4.91.46-.31-.7-1.01-1.03-.87-1.2.49-1.45-1.37-1.23-2.22.4-1.58,1.64-2.94,2.56-4.23,1.99-2.79,3.98-5.58,5.98-8.37,4.02-5.64,8.05-11.28,12.07-16.92,1.99-2.79,3.98-5.58,5.98-8.37,1.02-1.42,2.03-2.85,3.05-4.27.36-.51.82-1.08.49-1.72-.3-.57-.95-.83-1.5-1.05-6.09-2.41-12.3-4.51-18.58-6.32-6.29-1.81-12.71-3.34-19.16-4.55-.8-.15-1.6-.3-2.4-.43l.81.58c-3.54-9.41-7.28-18.75-10.44-28.31-.86-2.6-1.67-5.22-2.42-7.86-.13-.45-1.45-.9-1.26-.25h0Z"/>
      <path class="cls-6" d="M275.05,389.14c-1.96.87-4.05,1.44-6.12,1.92-2.52.59-5.07,1.02-7.63,1.36-4.92.67-9.89,1.06-14.84,1.04-1.01,0-2.02-.03-3.03-.1-.22-.01-.44-.03-.66-.05-.03,0-.07,0-.1-.01s-.07,0-.1-.01c.06,0,.07,0,.03,0-.09-.01-.18-.02-.27-.03-.33-.04-.66-.09-.99-.16-.23-.05-.55.02-.46.34.09.31.53.52.81.58,1.51.32,3.1.35,4.64.38,2.28.04,4.57-.04,6.85-.18,5.29-.32,10.6-.92,15.81-2.06,2.44-.53,4.89-1.18,7.2-2.2.3-.13-.13-.57-.24-.65-.25-.19-.6-.32-.9-.18h0Z"/>
      <path class="cls-6" d="M270.88,291.33c2.8-2.89,5.67-5.68,8.62-8.4.42-.38-.77-1.16-1.13-.83-2.95,2.71-5.83,5.51-8.62,8.4-.41.42.8,1.17,1.13.83Z"/>
      <path class="cls-6" d="M273.96,288.61c-.45.64-.88,1.3-1.02,2.09-.11.64.05,1.34.44,1.83.61.75,1.49.93,2.39,1.01.8.07,1.61.12,2.41.15.29,0,.4-.24.24-.47-.19-.28-.57-.47-.9-.48-.67-.02-1.34-.06-2.01-.12-.31-.02-.61-.04-.92-.1-.05-.01-.07-.03-.11-.03-.08,0,0-.02.02.02-.09-.12,0,.07-.06-.05.04.08-.06-.09-.06-.08-.22-.36-.24-.92-.12-1.34.18-.65.57-1.21.94-1.75.17-.25-.31-.59-.47-.67-.21-.11-.62-.27-.8,0h0Z"/>
      <path class="cls-6" d="M263.17,301.67c-5.54,4.71-11.07,9.43-16.61,14.14-1.57,1.34-3.14,2.68-4.71,4.01-.43.36.76,1.15,1.13.83,5.54-4.71,11.07-9.43,16.61-14.14,1.57-1.34,3.14-2.68,4.71-4.01.43-.36-.76-1.15-1.13-.83Z"/>
      <path class="cls-6" d="M268.8,302.87c-2.37,4.89-4.62,9.84-6.77,14.83-.61,1.42-1.21,2.85-1.81,4.29-.2.49,1.07,1.14,1.27.67,2.08-5.03,4.28-10,6.58-14.92.66-1.4,1.32-2.8,2-4.2.23-.47-1.04-1.14-1.27-.67h0Z"/>
      <path class="cls-6" d="M271.12,304.59c-.98,4.15-1.68,8.35-2.09,12.59-.05.49,1.26,1.05,1.31.48.4-4.17,1.08-8.3,2.04-12.38.13-.54-1.16-1.12-1.27-.67h0Z"/>
      <path class="cls-6" d="M277.37,300.39c.92,6.79,1.96,13.55,3.14,20.29,1.18,6.74,2.49,13.48,3.93,20.17.81,3.76,1.66,7.51,2.54,11.25.11.45,1.42.91,1.26.25-1.57-6.62-3.02-13.28-4.34-19.98-1.32-6.68-2.5-13.39-3.56-20.13-.59-3.78-1.15-7.57-1.66-11.37-.04-.33-.38-.55-.66-.65-.14-.05-.69-.15-.65.17h0Z"/>
      <path class="cls-6" d="M281.16,385.28c2.32-5.73,4.2-11.64,5.6-17.67.08-.36.17-.71.24-1.07.05-.24.07-.34.27-.47.15-.09.33-.15.49-.22.66-.3,1.32-.59,1.99-.88,1.29-.56,2.6-1.09,3.91-1.61,2.64-1.03,5.31-1.98,8.01-2.83,3.02-.95,6.06-1.79,9.14-2.51.32-.07.15-.42,0-.58-.22-.22-.61-.42-.93-.34-5.54,1.3-11,2.98-16.34,5.03-1.33.51-2.66,1.05-3.98,1.6-.65.28-1.3.56-1.95.84-.31.14-.61.27-.92.41-.16.07-.33.15-.49.22-.23.1-.33.11-.4.36-.22.74-.35,1.53-.53,2.29-.18.75-.37,1.52-.57,2.28-.4,1.51-.82,3.02-1.28,4.52-1.03,3.37-2.21,6.69-3.53,9.95-.2.5,1.08,1.14,1.27.67h0Z"/>
      <path class="cls-6" d="M232.26,345.36c1,5.23,2.16,10.43,3.49,15.57,1.33,5.15,2.83,10.26,4.49,15.3.94,2.85,1.93,5.68,2.97,8.49.12.31.5.53.81.58.22.04.57-.02.46-.34-1.83-4.95-3.51-9.96-5.03-15.03-1.52-5.07-2.85-10.15-4.04-15.3-.67-2.92-1.29-5.85-1.85-8.8-.06-.33-.37-.55-.66-.65-.12-.05-.71-.15-.65.17h0Z"/>
    </g>
    <g>
      <path class="cls-9" d="M252.53,375.93c1.22-.8,2.26-2.05,2.95-3.57-2.13-4.72-4.86-9.01-8.06-12.63-.16-.18-.33-.36-.53-.42-.23-.07-.47.03-.68.15-1.28.7-2.32,2.08-2.8,3.75,1.07,1.29,2.14,2.57,3.21,3.86,1.87,2.26,3.79,4.59,4.9,7.55.29.79.57,1.6,1.01,1.31h0Z"/>
      <path class="cls-10" d="M215.4,359.99s-24.58,17.79-40.96,37.24c-4.47,5.31-10.03,11.82-12.51,30.99-.43,3.3-1.17,23.32,19.74,36.81,9.04,5.83,18.08-2.53,19.99-4.53,12.26-12.88,25.18-30.52,33.56-40.68,5.7-6.91,17.73-24.21,18.88-29.42,1.49-6.75-2.55-16.48-6.27-21.83-4.54-6.53-9.61-11.44-16.21-13.48s-16.22,4.9-16.22,4.9h0Z"/>
      <path class="cls-8" d="M228.37,427.72c.97-1.29,1.68-2.94,1.96-4.71,2.48-15.75-2.36-24.99-7.69-31.84-9.82-12.63-16.9-13.75-18.74-13.86-3.23-.2-7.42.6-10.79,1.72,3.48-3.89,15.59-13.93,15.59-13.93,0,0,7-4.4,17.13,1.44,4.27,2.46,7.5,6.76,10.57,11.3,3.08,4.54,5.89,9.59,6.6,15.47.43,3.58,1.37,9.03-2.27,18.45-2.05,5.31-6.07,8.91-9.27,13.16-.89,1.17-1.78,2.35-3.09,2.8h0Z"/>
      <path class="cls-6" d="M175.4,394.58c-4.01,4.15-7.45,9.19-9.93,15-2.17,5.08-3.61,10.7-4.04,16.53-.38,5.22.04,10.61,1.44,15.61.66,2.37,1.55,4.66,2.64,6.77,1.36,2.63,3.09,4.91,4.85,7.11,3.68,4.59,7.96,8.8,12.93,10.7,4.34,1.66,8.79,1.24,12.92-.86,5.17-2.63,9.36-7.37,13.42-12.07,4.63-5.37,9.17-10.86,13.61-16.48,4.49-5.68,8.88-11.48,13.17-17.4,4.45-6.12,8.79-12.35,13.06-18.67,1.08-1.6,2.15-3.2,3.23-4.82.36-.55-1.1-1.2-1.44-.68-4.22,6.35-8.52,12.62-12.9,18.78-4.19,5.89-8.47,11.68-12.85,17.36-4.38,5.67-8.68,11.01-13.15,16.33-2.26,2.69-4.54,5.37-6.86,7.98-2.06,2.32-4.25,4.49-6.62,6.29-3.66,2.79-7.84,4.7-12.21,4.13-4.53-.59-8.64-3.79-12.12-7.49-2.17-2.31-4.26-4.86-6.08-7.63-1.23-1.88-2.28-3.95-3.1-6.16-1.74-4.63-2.55-9.76-2.54-14.84,0-5.57.98-11.08,2.68-16.15,1.94-5.78,4.86-10.95,8.37-15.31.94-1.17,1.93-2.28,2.95-3.34.27-.28-.3-.68-.44-.76-.32-.15-.73-.21-1,.07h0Z"/>
      <path class="cls-6" d="M252.37,396.51c4.48-5.9,2.76-14.94-.17-21.5-1.76-3.94-4.09-7.38-6.76-10.37-2.93-3.28-6.13-6.23-9.68-8.26s-7.14-2.9-10.8-2.17c-1.85.37-3.54,1.23-5.21,2.24-1.68,1.02-3.34,2.11-4.97,3.25-6.83,4.77-13.33,10.31-19.68,16.03-5.86,5.28-11.7,10.57-17.27,16.33-.81.84-1.62,1.68-2.42,2.53-.26.28.3.68.44.76.31.15.73.22,1-.07,2.79-2.94,5.61-5.82,8.51-8.58,2.77-2.64,5.59-5.19,8.4-7.74,6.16-5.59,12.39-11.07,18.92-15.95,3.16-2.36,6.39-4.69,9.77-6.52,3.15-1.71,6.65-1.85,9.97-.6,3.49,1.31,6.67,3.87,9.53,6.73,2.86,2.86,5.39,5.94,7.44,9.69,3.24,5.94,6.04,14.83,2.8,21.49-.36.74-.79,1.42-1.26,2.05-.38.5,1.07,1.17,1.44.68h0Z"/>
      <path class="cls-6" d="M193.55,462.96c2.87-.88,5.56-2.55,7.75-5.06,2.04-2.33,3.56-5.33,4.48-8.64,2.06-7.38,1.05-15.75-1.62-22.8-2.88-7.6-7.65-14.41-13.69-17.99-4.84-2.87-10.49-3.74-15.47-1.39-2.25,1.06-4.29,2.75-5.91,5-1.68,2.34-2.86,5.24-3.5,8.34-.17.82-.29,1.64-.39,2.48-.08.7,1.46,1.11,1.54.44.36-3.16,1.22-6.19,2.66-8.78,1.32-2.37,3.06-4.29,5.09-5.62,2.03-1.33,4.29-2.03,6.58-2.14,2.43-.12,4.84.45,7.14,1.56,5.78,2.78,10.41,8.78,13.47,15.56,3.06,6.78,4.57,14.95,3.14,22.54-1.28,6.77-4.97,12.26-10.08,14.68-.7.33-1.41.59-2.14.82-.31.1-.34.43-.11.69.27.3.75.42,1.09.31h0Z"/>
      <path class="cls-6" d="M228.61,430.48c2.27-5.78,3.66-12.16,3.12-18.75-.41-4.99-1.97-9.71-4.16-13.9-2.16-4.14-4.87-7.9-7.8-11.18-3.39-3.8-7.31-7.01-11.63-8.7-4.77-1.86-9.76-1.73-14.37.48-.63.3-1.25.64-1.86,1-.33.19-.03.61.17.75.31.22.75.32,1.08.13,4.21-2.52,8.9-3.33,13.5-1.85,4.1,1.31,7.84,4.22,11.09,7.67,2.94,3.12,5.62,6.77,7.84,10.74,2.22,3.98,3.78,8.2,4.42,12.86.82,5.98-.09,12.04-1.91,17.5-.29.87-.6,1.72-.93,2.57-.15.38.2.64.44.76.21.1.86.29,1-.07h0Z"/>
      <path class="cls-6" d="M240.54,413.75c2.13-5.42,3.81-11.43,3.54-17.65-.19-4.51-1.45-8.71-3.41-12.5-.94-1.82-2.02-3.52-3.13-5.17-1.36-2.02-2.8-3.96-4.34-5.77-3.14-3.69-6.78-6.87-10.86-8.47-4.63-1.82-9.44-1.47-13.89.68-.64.31-1.27.66-1.89,1.03-.33.19-.03.61.17.75.31.22.75.32,1.08.13,4.09-2.45,8.65-3.49,13.15-2.05,3.86,1.24,7.31,4.11,10.29,7.46,2.76,3.09,5.31,6.66,7.44,10.48,1.93,3.47,3.34,7.36,3.74,11.58.54,5.62-.67,11.24-2.41,16.28-.3.86-.61,1.71-.94,2.55-.15.38.2.64.44.76.21.1.86.29,1-.07Z"/>
      <path class="cls-6" d="M253.09,376.87c1.05-1.32,2.1-2.65,3.14-3.97.05-.07.06-.16.04-.26-2.19-5.56-5.3-10.49-9.11-14.38-.3-.31-1.01-.57-1.32-.15-1.13,1.53-2.17,3.17-3.3,4.7-.38.51,1.08,1.18,1.44.68,1.13-1.53,2.17-3.17,3.3-4.7l-1.32-.15c3.66,3.74,6.68,8.49,8.78,13.84l.04-.26c-1.05,1.32-2.1,2.65-3.14,3.97-.24.31.27.67.44.76.29.14.75.23,1-.07h0Z"/>
    </g>
    <g>
      <path class="cls-8" d="M425.67,191.83c-13.62,8.38-26.54,15.16-40.69,22.48-13.95,7.22-27.74,14.79-41.53,22.36-8.54,4.69-17.72,8.88-24.43,16.09-7.73,8.31-6.62,16.84-3.88,23.2,4.66,10.83,12.94,17.17,16.38,18.26,8.71,2.76,19.81-2.8,27.27-7.75,26.37-17.5,49.13-31.59,74.96-48.74,4.43-2.94,13.09-7.13,16.95-10.83,3.87-3.7,6.31-10.96,6.1-16.11-.37-8.85-3.14-14.82-7.28-17.29-6.81-4.06-17.64-5.48-23.83-1.68h0Z"/>
      <path class="cls-9" d="M368.13,223.98c-10.9,5.36-21.64,11.13-32.16,17.31,2.69.24,7.52-.04,9.79,1.31,5.22,3.09,15.95,10.04,20.95,24.88.88,2.62,2.38,12.46-3.85,17.09,5.04-4.07,30.38-21.61,30.38-21.61,0,0,4.91-8.99-1.61-21.91-8.41-16.67-24.35-17.48-23.49-17.06h0Z"/>
      <path class="cls-9" d="M313.66,271.16c-2.16,1.39-4.33,2.77-6.49,4.16-1.2.77-2.49,1.64-3,2.97-.28.71-.3,1.47-.26,2.21.12,2.42.81,4.76,2.01,6.78,1.02,1.71,2.38,3.17,3.47,4.83.59.89,2.87,2.48,6.17,4.51.58.35,1.41,0,2.09-.24.91-.32,1.7-.96,2.46-1.59,1.89-1.56,3.82-3.15,5.16-5.21.49-.75.9-1.56,1.05-2.42.12-.66-.04-1.19-.08-1.84-.06-1.08.43-9.97-11.33-14.63-.67-.27-1.56.2-1.25.49h0Z"/>
      <path class="cls-6" d="M324.97,290.53c2.8,2.67,6.1,4.93,10.1,5.45,2.03.26,4.08,0,6.13-.41,1.96-.4,3.91-.98,5.8-1.71,3.82-1.47,7.42-3.51,10.89-5.76,1.74-1.13,3.45-2.31,5.15-3.51,1.94-1.37,3.9-2.66,5.9-3.91,4.34-2.71,8.68-5.41,12.93-8.29,4.25-2.88,8.43-5.84,12.68-8.69,4.33-2.9,8.78-5.63,13.16-8.46,4.34-2.8,8.68-5.62,13.03-8.41,8.57-5.47,17.14-10.97,25.83-16.22,1.09-.66,2.18-1.31,3.28-1.96.5-.3-.36-1.7-.91-1.37-8.57,5.05-16.94,10.49-25.37,15.8-8.65,5.45-17.17,11.1-25.82,16.55-4.3,2.71-8.47,5.65-12.66,8.55-4.19,2.89-8.41,5.72-12.72,8.41-2.07,1.3-4.14,2.58-6.2,3.88-1.87,1.18-3.65,2.47-5.46,3.74-3.38,2.35-6.85,4.62-10.51,6.45-3.66,1.83-7.5,3.18-11.46,3.75-2.08.3-4.07.27-6.04-.28-1.86-.52-3.55-1.45-5.07-2.59-.77-.58-1.5-1.21-2.2-1.88-.17-.16-.54-.49-.76-.16-.19.29.13.85.31,1.02h0Z"/>
      <path class="cls-6" d="M425.21,191.14c-4.16,2.54-8.39,4.94-12.58,7.42-2.11,1.25-4.21,2.53-6.35,3.72-2.14,1.19-4.22,2.33-6.33,3.49-8.52,4.66-17.08,9.21-25.65,13.76-8.56,4.56-17.01,9.06-25.45,13.71-4.24,2.33-8.46,4.7-12.67,7.1-1.96,1.12-3.98,2.05-6,3.04-2.03.99-3.89,2.27-5.73,3.61-3.54,2.6-6.95,5.63-9.21,9.46-2.13,3.61-2.9,7.56-2.66,11.55.06.95.16,1.89.28,2.83.05.38.3.81.64.97.29.13.55,0,.51-.37-.51-3.91-.49-7.77,1.16-11.6,1.78-4.12,4.99-7.43,8.47-10.18,1.73-1.37,3.55-2.74,5.44-3.86,1.89-1.12,3.91-1.9,5.85-2.9,2.1-1.08,4.13-2.33,6.19-3.49,2.06-1.16,4.18-2.35,6.28-3.51,8.36-4.63,16.78-9.14,25.22-13.63,8.44-4.5,16.9-8.98,25.31-13.54,4.22-2.29,8.52-4.5,12.63-7.01,4.11-2.51,8.33-4.89,12.48-7.36,1.03-.61,2.06-1.23,3.09-1.86.5-.31-.37-1.7-.91-1.37h0Z"/>
      <path class="cls-6" d="M449.24,229.04c3.86-2.52,6.27-6.6,7.37-10.96,1.18-4.71.93-9.66-.29-14.14-1.15-4.2-3.17-8.04-6.46-10.79-3.05-2.55-6.91-4.14-10.92-4.67-4.02-.52-8.38.02-12.27,1.89-.49.24-.97.49-1.44.76-.5.29.36,1.69.91,1.37,3.59-2.08,7.7-2.95,11.66-2.73,3.82.22,7.59,1.41,10.65,3.55,1.43,1,2.77,2.24,3.77,3.61,1.14,1.58,1.96,3.4,2.6,5.31,1.39,4.17,1.81,8.81,1,13.32-.76,4.19-2.71,8.35-6.14,11.12-.43.35-.87.67-1.33.96-.5.33.38,1.72.91,1.37h0Z"/>
      <path class="cls-6" d="M363.39,284.41c4.08-2.93,4.88-8.43,4.5-12.88-.47-5.62-2.74-10.75-5.94-15.11-2.48-3.37-5.24-6.52-8.37-9.28-3.13-2.75-6.54-5.07-10.54-6.18-3.72-1.03-7.73-.62-11.22,1.6-.46.29-.9.61-1.33.94-.49.38.43,1.75.91,1.37,1.61-1.25,3.41-2.21,5.35-2.67,1.78-.42,3.59-.43,5.33-.11,3.8.69,7.14,2.75,10.05,5.1,3.09,2.49,5.79,5.44,8.24,8.6,0,0,.1.13.03.04.03.04.05.07.08.1.07.09.14.18.21.28.15.2.29.39.44.59.26.35.51.7.76,1.05.75,1.07,1.44,2.18,2.04,3.35,1.2,2.38,2.09,4.95,2.55,7.63.72,4.23.6,9.71-2.79,13.17-.37.38-.77.72-1.2,1.03-.5.36.41,1.73.91,1.37Z"/>
      <path class="cls-6" d="M391.64,265.77c3.53-2.54,4.29-7.24,4.19-11.13-.12-4.69-1.43-9.41-3.58-13.39-.98-1.81-2.17-3.5-3.39-5.14-1.23-1.65-2.53-3.23-3.96-4.71-2.75-2.83-5.95-5.33-9.76-6.63-3.8-1.3-7.87-1.07-11.73.57-.54.23-1.08.48-1.6.76s.34,1.67.91,1.37c3.64-1.9,7.65-2.6,11.45-1.66,3.6.88,6.69,3.02,9.31,5.51,2.75,2.62,5.04,5.65,7.1,8.85,2.25,3.5,3.57,7.81,3.98,12.09.35,3.67.09,8.33-2.8,11.26-.32.32-.67.62-1.04.88-.5.36.41,1.73.91,1.37h0Z"/>
      <path class="cls-6" d="M436.46,232.13c2.57-5.17,1.78-11.33-.05-16.25-2.12-5.69-5.97-10.91-11.33-13.73-2.93-1.55-6.29-2.25-9.72-1.87-.6.07.11,1.52.69,1.46,5.81-.64,11.01,2.01,14.65,6.13,3.51,3.96,5.86,9.33,6.18,14.93.15,2.73-.22,5.59-1.49,8.14-.27.53.78,1.76,1.07,1.19h0Z"/>
      <path class="cls-6" d="M433.84,234.33c2.57-5.17,1.78-11.33-.05-16.25-2.12-5.69-5.97-10.91-11.33-13.73-2.93-1.55-6.29-2.25-9.72-1.87-.6.07.11,1.52.69,1.46,5.81-.64,11.01,2.01,14.65,6.13,3.64,4.11,5.86,9.33,6.18,14.93.15,2.73-.22,5.59-1.49,8.14-.27.53.78,1.76,1.07,1.19h0Z"/>
      <path class="cls-6" d="M325.37,290.86c2.86-2.56,1.88-6.99.77-9.87-.77-1.99-1.86-3.83-3.15-5.48-1.22-1.56-2.66-2.96-4.36-3.97-1.53-.91-3.43-1.51-5.29-.97-.64.19.14,1.62.69,1.46,1.47-.42,2.92-.1,4.16.53,1.52.77,2.74,1.89,3.84,3.18,1.1,1.3,2.12,2.9,2.86,4.6.65,1.49,1.15,3.15,1.19,4.9.03,1.49-.38,3.16-1.61,4.26-.48.43.47,1.77.91,1.37h0Z"/>
      <path class="cls-6" d="M317.33,295.52c.96-1.08,1.19-2.48,1.13-3.82-.08-1.73-.63-3.41-1.29-4.95-.75-1.73-1.71-3.35-2.84-4.83-1.07-1.39-2.28-2.72-3.73-3.72-1.18-.82-2.7-1.61-4.25-1.25-.63.15.13,1.59.69,1.46,1.16-.27,2.2.18,3.14.75.5.31,1.1.78,1.6,1.25.21.19.49.48.75.76.28.3.55.61.81.93.96,1.18,1.89,2.63,2.57,4.07.65,1.35,1.17,2.77,1.35,4.28.14,1.21.08,2.68-.84,3.7-.44.49.55,1.78.91,1.37h-.01Z"/>
      <path class="cls-6" d="M324.32,289.92c-2.61,1.95-5.22,3.9-7.83,5.86-.5.37.42,1.74.91,1.37,2.61-1.95,5.22-3.9,7.83-5.86.5-.37-.42-1.74-.91-1.37Z"/>
      <path class="cls-6" d="M312.99,270.46c-2.83,1.78-5.65,3.57-8.48,5.35-.5.32.38,1.71.91,1.37,2.83-1.78,5.65-3.57,8.48-5.35.5-.32-.38-1.71-.91-1.37Z"/>
      <path class="cls-6" d="M316.66,295.66c-1.42.17-2.71-.43-3.86-1.16-1.44-.9-2.69-2.18-3.83-3.55-1.13-1.37-2.23-3.06-3.03-4.74-.73-1.53-1.32-3.11-1.5-4.82-.14-1.35,0-2.95,1.1-4.02.47-.45-.5-1.77-.91-1.37-1.14,1.1-1.43,2.66-1.39,4.12.06,1.92.68,3.77,1.42,5.47.88,2.01,2.03,3.88,3.36,5.59,1.22,1.58,2.63,3.06,4.26,4.21,1.43,1.01,3.18,1.93,5.06,1.72.6-.07-.11-1.53-.69-1.46Z"/>
    </g>
    <g>
      <path class="cls-9" d="M34.04,444.42c-.14-15.72,1.65-32.07,6.05-46.72-11.86-5.18-14.51-8.64-14.51-8.64l-8.32,7.47s-.17,6.96-.26,7.77c-.09.8.7,1.07-.02,1.2-1.6.27-5.95-5.72-6.61-4.1-3.61,8.96-9.69,28-9.69,28,0,0,4.88,9.73,9.61,14.75,3.44,3.64,7.65,6.31,10.92,10.13.25.29.5.59.64.95.19.49.15,1.04.12,1.56-.21,3.91-.96,6.79.66,10.42.75,1.67,3.67,5.97,4.87,5.29,3.94-2.23-.51-8.14,10.29-8.41,1.07-.03,2.59-.39,3.99-5.54,1.15-4.21-2.84-11.36-4.33-13.28-.89-1.14-3-.72-3.41-.85h0ZM16.9,416.81c-.28,5.03,2.61,12.34,2.36,16.79-2.14-1.86-5.28-5.99-7.41-8.54-.47-.57-.98-1.24-.93-1.98.03-.52.34-.95.63-1.35,1.39-1.89,2.78-3.78,4.17-5.67.17-.24.4-.49.68-.44.44.07.52.73.5,1.2h0Z"/>
      <path class="cls-9" d="M26.66,472.39c-5.05,9.44-9.56,20.33-12.56,30.86-.47,1.67-.93,3.38-.9,5.15.06,3.43,1.86,6.62,2.77,9.95,1.41,5.18.55,10.89-2.27,15.03-.65.96-1.44,2.2-.85,3.29.74,1.39,2.77.86,3.9,1.9,1.42,1.31-.14,4.44.07,6.42.27,2.55,3.17,3.49,5.27,4.73,11.23,6.63,24.25,14.85,35.96,20.25,1.05.48,21.42-11.34,27.1-20.53.45-.73,11.06,2.93,13.84,3.24,5.01-7.28,8.79-14.79,12-22.34-.64.93-2.8-.1-3.29-1.21s-.05-2.32-.01-3.51c.46-15.84,3.39-50.85,3.39-50.85,0,0-5.59-.24-19.71,3.3-11.69,2.93-20.09,6.01-20.09,6.01,0,0-8.96-7.16-10.66-8.81-6.27-6.07-12.74-11.45-19.2-17.71-.47,1.93.24,2.57-.8,4.18-1.04,1.61-4.05,2.91-5.9,2.71-.84-.09-2.06.14-2.88.28-1.82.31-1.92,3.37-2.37,5.31-.46,1.94-1.36,3.4-2.83,2.34h0Z"/>
      <path class="cls-6" d="M22.49,453.66c-2.42,4.4-2.32,10.36.12,15.06,1.16,2.24,3.19,4.91,5.75,4,1.78-.64,2.04-2.98,2.55-4.68.28-.94.64-1.94,1.38-2.54,1.02-.82,2.5-.62,3.73-.69,1.34-.08,2.6-.39,3.68-1.22.92-.7,1.63-1.69,2.12-2.8,1.12-2.53,1.03-5.43.16-8.16-.52-1.65-1.28-3.2-2.14-4.69-.44-.77-.91-1.51-1.38-2.26-.21-.33-.42-.66-.64-.98-.11-.17-.21-.38-.37-.49-.21-.15-.49-.15-.72-.13-5.14.37-9.88,3.33-12.58,8-.33.56-.62,1.15-.88,1.76-.21.49,1.16.65,1.36.19,1.74-4.06,5.03-7.17,8.96-8.51,1.08-.37,2.2-.6,3.35-.68l-.69-.27c2.53,3.85,5.47,8.33,4.96,13.17-.19,1.85-.9,3.69-2.13,4.94-.56.57-1.25,1.01-2.01,1.21-.95.25-1.97.16-2.95.23-1.03.08-2.08.26-2.92.9-.57.44-.98,1.07-1.28,1.76-.56,1.32-.72,2.82-1.31,4.12-.22.48-.57.99-.98,1.16-.13.05-.17.06-.25.07-.14.01-.28-.02-.42-.07-.39-.14-.74-.42-1.05-.72-1.34-1.28-2.29-3.21-2.9-5-1.26-3.67-1.21-7.84.23-11.25.18-.43.38-.84.6-1.24.16-.28-.37-.44-.52-.47-.28-.04-.69,0-.84.28h0Z"/>
      <path class="cls-6" d="M17.45,405.77c-1-.89-2.16-1.61-3.24-2.37-.46-.32-.92-.63-1.37-.98-.74-.58-1.39-1.22-2.3-1.4-.27-.05-.69,0-.84.28-.29.53-.48,1.15-.72,1.71-.27.63-.54,1.26-.81,1.9-.53,1.25-1.04,2.51-1.53,3.78-.99,2.51-1.93,5.06-2.81,7.63-1.2,3.5-2.27,7.06-3.31,10.63-.13.46-.28.92-.39,1.4-.22.89-.13,1.73.21,2.6.5,1.29,1.25,2.46,2.02,3.58.76,1.12,1.56,2.28,2.37,3.39,1.65,2.26,3.39,4.46,5.32,6.44,1.54,1.57,3.16,3.04,4.76,4.54,2.2,2.07,4.41,4.14,6.58,6.25.11.11.22.22.33.33.33.34,1.66.09,1.18-.4-1.96-2.01-4.05-3.88-6.08-5.8-1.32-1.25-2.66-2.48-3.97-3.74-1.99-1.9-3.81-3.93-5.51-6.15-.84-1.1-1.66-2.22-2.45-3.37-.79-1.14-1.58-2.23-2.26-3.41-.59-1.01-1.27-2.2-1.22-3.4.02-.48.16-.91.28-1.36.92-3.23,1.88-6.44,2.93-9.61,1.7-5.15,3.64-10.18,5.77-15.11.23-.54.41-1.14.69-1.64l-.84.28c.29.06.62.38.85.57.26.21.51.43.78.63.46.34.94.67,1.41.99,1.01.71,2.08,1.38,3.02,2.21.25.23.68.22.97.13.2-.07.47-.3.21-.53h0Z"/>
      <path class="cls-6" d="M16.27,414.37c-1.64,2.07-3.23,4.19-4.69,6.41-.72,1.11-1.42,2.24-2.08,3.4-.36.62-.71,1.24-1.05,1.87-.32.58-.63,1.17-.79,1.83-.33,1.3-.09,2.63.56,3.82.81,1.46,1.66,2.9,2.5,4.35,1.69,2.93,3.39,5.85,5.1,8.76,1.93,3.29,3.87,6.56,5.82,9.84.26.45,1.62.26,1.33-.22-3.41-5.71-6.78-11.45-10.12-17.21-.83-1.43-1.65-2.86-2.47-4.29-.39-.67-.82-1.34-1.13-2.06-.25-.57-.33-1.16-.33-1.77,0-1.47.78-2.67,1.44-3.85.66-1.18,1.32-2.3,2.03-3.41,1.57-2.49,3.31-4.82,5.12-7.1.4-.51-.95-.73-1.23-.37h0Z"/>
      <path class="cls-6" d="M10.13,423.35c2.92,3.57,5.66,7.29,8.58,10.86.22.27.58.31.88.26.13-.02.67-.21.45-.48-2.92-3.57-5.66-7.29-8.58-10.86-.22-.27-.58-.31-.88-.26-.13.02-.67.21-.45.48Z"/>
      <path class="cls-6" d="M16.56,396.54c-.26,7.48-.57,14.97-.11,22.5.22,3.7.63,7.4,1.35,11.06.71,3.66,1.73,7.44,2.67,11.15,1.07,4.17,2.07,8.38,2.57,12.65.06.54,1.46.5,1.4-.02-.89-7.63-3.39-14.97-4.97-22.48-1.58-7.51-1.9-14.87-1.84-22.31.03-4.19.19-8.37.34-12.55.02-.5-1.38-.54-1.4.02h0Z"/>
      <path class="cls-6" d="M17.88,396.72c2.77-2.49,5.55-4.98,8.32-7.47h-1.21c3.38,3.1,7.2,5.61,11.24,7.41,1.16.52,2.34.97,3.53,1.38l-.35-.43c-1.62,6.04-3.1,12.14-4.16,18.37-.99,5.83-1.59,11.76-1.78,17.74-.12,3.71-.09,7.44.03,11.17.02.52,1.41.53,1.4-.02-.2-6.37-.12-12.73.45-19.02.54-5.9,1.52-11.71,2.79-17.43.79-3.57,1.69-7.11,2.64-10.63.07-.24-.17-.37-.35-.43-4.02-1.36-7.87-3.42-11.36-6.09-.99-.76-1.95-1.56-2.89-2.41-.31-.29-.92-.24-1.21.01-2.77,2.49-5.55,4.98-8.32,7.47-.24.22.09.46.29.52.31.09.7.07.95-.15h0Z"/>
      <path class="cls-6" d="M37.58,401.42c-.27-.64-.62-1.32-1.17-1.75-.67-.51-1.58-.57-2.27-.21-.69.37-1.03,1.15-1.32,1.88-.31.78-.6,1.57-.86,2.37-.88,2.66-1.47,5.43-1.73,8.29-.26,2.85-.23,5.76-.2,8.65.04,3.75.02,7.49.16,11.24.17,4.53.55,9.08,1.36,13.58.1.55,1.49.48,1.4-.02-1.35-7.54-1.43-15.1-1.5-22.67-.05-5.48-.23-11,1.1-16.25.41-1.64.94-3.23,1.55-4.78.16-.41.31-.84.54-1.21.1-.16.21-.32.35-.44.05-.04.1-.1.17-.12.07-.01-.02,0-.03,0,.24.06.46.38.59.58.22.33.39.69.54,1.05.2.46,1.57.33,1.33-.22h0Z"/>
      <path class="cls-6" d="M26.2,472.36c-3.68,7.45-6.94,15.19-9.89,23.05-.73,1.96-1.44,3.92-2.13,5.9-.32.92-.63,1.85-.94,2.77s-.63,1.84-.8,2.8c-.39,2.28.74,4.54,1.39,6.72.65,2.18,1.23,4.59,1.51,6.94.48,3.97.11,8.11-1.71,11.49-.44.82-1,1.5-1.52,2.25s-.68,1.61-.09,2.41,1.44,1.13,2.27,1.39c.77.25,1.61.47,2.03,1.31.35.7.26,1.55.13,2.27-.14.8-.34,1.59-.38,2.41-.09,2.05,1.34,3.46,2.86,4.48,1.85,1.23,3.81,2.29,5.72,3.41,1.91,1.12,3.97,2.31,5.96,3.46,8.01,4.6,16.09,9.06,24.23,13.37,1,.53,1.99,1.05,2.99,1.58.29.15.72.16.99-.01.23-.15.24-.4-.04-.54-8.07-4.23-16.08-8.61-24.02-13.13-3.96-2.25-7.9-4.54-11.84-6.86-.93-.55-1.87-1.08-2.78-1.67-.79-.51-1.6-1.13-2.13-1.97-1-1.61-.28-3.33-.08-5,.09-.73.05-1.52-.35-2.19-.46-.75-1.21-1.12-1.96-1.39-.81-.29-1.8-.45-2.34-1.28-.61-.94.12-1.75.62-2.41,2.18-2.87,3.08-6.69,3.04-10.49-.02-2.24-.36-4.49-.87-6.69-.51-2.2-1.28-4.44-1.95-6.66-.35-1.13-.48-2.24-.24-3.37.2-.97.55-1.9.85-2.83.64-1.92,1.3-3.82,1.99-5.72,2.85-7.87,6.04-15.59,9.59-23.06.41-.86.83-1.72,1.25-2.57.23-.46-1.14-.64-1.36-.19Z"/>
      <path class="cls-6" d="M41.52,458.25c6.34,6.55,13.14,12.55,19.96,18.48,1.71,1.49,3.42,2.97,5.13,4.46.81.7,1.62,1.41,2.43,2.12.39.34.77.68,1.16,1.01.52.44.99.28,1.54.08,4.24-1.53,8.53-2.91,12.87-4.12,4.34-1.22,8.67-2.27,13.07-3.16,2.22-.45,4.46-.87,6.7-1.24,1.12-.19,2.24-.36,3.37-.53.53-.08,1.06-.15,1.59-.23.28-.04.56-.08.84-.12.25-.03.34-.11.42.21.12.46-.01,1.03-.05,1.48-.05.66-.1,1.33-.15,1.99-.1,1.26-.2,2.51-.29,3.77-.19,2.48-.38,4.96-.58,7.44-.39,4.99-.78,9.99-1.17,14.99-.39,4.99-.78,9.99-1.17,14.99-.1,1.26-.2,2.51-.29,3.77-.1,1.26-.25,2.43-.23,3.65.01.99.2,2.1.85,2.88.53.65,1.31,1.02,2.07,1.11s1.56-.09,2.04-.74l-1.3-.28c-2.13,4.59-4.38,9.11-6.76,13.54-1.17,2.18-2.38,4.35-3.61,6.5-.29.51-.57,1.03-.89,1.52-.12.18-.25.39-.42.52-.29.21-.62.09-.95,0-1.19-.32-2.37-.69-3.55-1.03-2.76-.81-5.51-1.61-8.27-2.42-.28-.08-.74-.1-.95.15-.2.25.06.46.29.52,2.63.77,5.27,1.54,7.9,2.31,1.28.37,2.56.76,3.84,1.12,1.09.31,2.34.43,3.14-.5.36-.42.61-.94.89-1.42.35-.61.71-1.22,1.06-1.84.67-1.17,1.32-2.35,1.97-3.54,1.27-2.32,2.5-4.66,3.7-7.02,1.38-2.71,2.7-5.45,3.99-8.21.23-.5-1.09-.56-1.3-.28-.76,1.03-1.89-.52-2.14-1.38-.46-1.62-.09-3.45.03-5.06.27-3.5.54-6.99.82-10.48.55-7.06,1.1-14.11,1.65-21.17.27-3.5.54-6.99.82-10.48.14-1.78.28-3.56.42-5.34.05-.64.15-1.37-.45-1.79-.53-.37-1.21-.28-1.78-.21-6.29.84-12.54,2.02-18.69,3.49-6.16,1.48-12.29,3.27-18.29,5.37-.74.26-1.49.52-2.23.79l.97.13c-7.66-6.72-15.45-13.26-22.87-20.31-2.02-1.91-4.01-3.87-5.95-5.87-.33-.34-1.66-.09-1.18.4h0Z"/>
      <path class="cls-6" d="M84.14,549.57c-1.2,1.75-2.67,3.29-4.16,4.75-1.82,1.77-3.73,3.42-5.7,4.99-3.78,3.03-7.74,5.84-11.89,8.26-.85.5-1.7.97-2.58,1.41-.19.1-.38.19-.58.28-.03.01-.06.03-.09.04s-.06.03-.09.04c.06-.02.06-.03.03-.01-.08.03-.16.07-.24.1-.3.13-.6.25-.91.35-.22.07-.45.29-.21.53.23.24.7.21.97.13,1.42-.46,2.77-1.21,4.07-1.95,1.93-1.09,3.8-2.29,5.64-3.55,4.26-2.9,8.41-6.06,12.19-9.65,1.78-1.68,3.5-3.47,4.92-5.53.18-.26-.39-.45-.52-.47-.3-.04-.66,0-.84.28h0Z"/>
      <path class="cls-6" d="M31.81,463.66c.9-3.98,1.9-7.91,3.02-11.81.16-.55-1.23-.66-1.36-.19-1.11,3.9-2.12,7.83-3.02,11.81-.13.58,1.26.66,1.36.19Z"/>
      <path class="cls-6" d="M33.03,459.69c-.05.8-.09,1.6.19,2.39.22.63.71,1.18,1.29,1.43.89.38,1.71.1,2.51-.27.71-.33,1.41-.68,2.09-1.06.25-.14.21-.41-.04-.54-.3-.16-.71-.14-.99.01-.57.31-1.15.61-1.74.89-.27.13-.54.27-.82.36-.05.01-.08.01-.1.03-.07.04-.01-.01.03,0-.14-.06.04.06-.08-.02.08.05-.09-.05-.09-.05-.37-.22-.65-.71-.77-1.15-.18-.67-.13-1.37-.09-2.04.02-.31-.55-.38-.72-.37-.23,0-.65.07-.67.39h0Z"/>
      <path class="cls-6" d="M30.53,476.77c-2.28,6.97-4.55,13.94-6.83,20.91-.65,1.98-1.29,3.96-1.94,5.93-.17.54,1.21.66,1.36.19,2.28-6.97,4.55-13.94,6.83-20.91.65-1.98,1.29-3.96,1.94-5.93.17-.54-1.21-.66-1.36-.19Z"/>
      <path class="cls-6" d="M35.83,475.07c.46,5.57,1.05,11.13,1.75,16.68.2,1.58.41,3.16.63,4.75.07.54,1.47.5,1.4-.02-.77-5.55-1.42-11.1-1.95-16.67-.15-1.58-.29-3.17-.43-4.76-.05-.53-1.44-.51-1.4.02h0Z"/>
      <path class="cls-6" d="M38.64,475.47c1.25,4.21,2.76,8.34,4.54,12.35.21.46,1.57.32,1.33-.22-1.75-3.95-3.24-8-4.47-12.15-.16-.55-1.53-.43-1.4.02h0Z"/>
      <path class="cls-6" d="M41.76,468.6c4.16,5.65,8.41,11.22,12.75,16.69,4.35,5.48,8.81,10.89,13.35,16.2,2.55,2.98,5.13,5.93,7.74,8.86.32.35,1.65.12,1.18-.4-4.62-5.18-9.16-10.45-13.6-15.82-4.44-5.36-8.78-10.81-13.03-16.35-2.39-3.11-4.74-6.24-7.06-9.4-.2-.27-.59-.3-.88-.26-.14.02-.66.21-.45.48h0Z"/>
      <path class="cls-6" d="M87.31,543.08c-.92-6.3-2.31-12.54-4.14-18.66-.11-.36-.22-.72-.33-1.09-.08-.24-.12-.34,0-.55.08-.16.2-.3.3-.44.4-.59.81-1.18,1.22-1.77.8-1.14,1.63-2.26,2.46-3.37,1.69-2.23,3.45-4.4,5.28-6.5,2.05-2.35,4.18-4.61,6.38-6.77.23-.23-.08-.46-.29-.52-.3-.09-.72-.08-.95.15-3.98,3.9-7.71,8.11-11.15,12.59-.86,1.12-1.7,2.26-2.53,3.41-.41.57-.81,1.15-1.21,1.72-.19.27-.38.55-.56.82-.1.15-.2.29-.3.44-.14.21-.22.26-.16.52.19.78.48,1.55.7,2.32.22.77.45,1.55.66,2.33.42,1.56.82,3.12,1.18,4.7.82,3.54,1.49,7.1,2.02,10.69.08.55,1.47.5,1.4-.02h0Z"/>
      <path class="cls-6" d="M26.5,531.32c3.45,4.21,7.02,8.31,10.7,12.28,3.68,3.97,7.49,7.83,11.39,11.54,2.21,2.1,4.45,4.15,6.72,6.17.26.22.68.22.97.13.2-.07.47-.3.21-.53-4-3.54-7.91-7.22-11.71-11.04-3.8-3.81-7.46-7.72-11.01-11.77-2.02-2.29-4-4.63-5.94-7-.22-.27-.58-.31-.88-.26-.13.02-.67.21-.45.48h0Z"/>
    </g>
  </g>
  <g id="Layer_12" data-name="Layer 12">
    <path class="cls-4" d="M828.41,25.03l154.41,263.23c12.07,20.57,7.44,46.86-10.94,62.07l-499.21,413.27c-20.69,17.13-51.35,14.24-68.47-6.45l-116.04-140.17c-7.3-8.82-11.25-19.92-11.17-31.37l1.14-155.76c.11-14.36,6.55-27.95,17.62-37.11L755.45,12.18c23.09-19.11,57.8-13,72.96,12.85Z"/>
    <ellipse class="cls-7" cx="711.56" cy="802.73" rx="81.34" ry="78.95"/>
    <path class="cls-5" d="M1242.93,575.57l9.46-204.29s200.72,4.45,227.1,23.03c26.38,18.58,166.35,145.32,120.96,355.29v64.31h-159.5l-8.85-69.99s-1.89-41.61-41.61-43.51c-39.72-1.89-145.65,0-145.65,0v26.48h-17.02v68.33l-77.55-.24-30.27-51.07h-49.18v59.65l-221.32.88v-62.08l-60.53-.34s-75.66-92.69-162.68,0h-64.31v-50.51l648.81-4.35v-111.6h32.16Z"/>
    <path class="cls-3" d="M1466.56,440.67c-17.68-4.3-69.78-16.07-110.37-16.13-19.16-.03-34.77,15.36-34.77,34.53v49.82c0,13.77,8.18,26.22,20.82,31.69l142.21,61.49c4.33,1.87,8.99,2.84,13.7,2.84h15.4c24.79,0,41.53-25.35,31.73-48.13-16.46-38.29-41.15-88.68-64.43-108.79-4.11-3.55-9.02-6.02-14.29-7.3Z"/>
    <polygon class="cls-1" points="715.36 45.37 885 418.16 847.51 449.2 671.81 81.42 715.36 45.37"/>
    <ellipse class="cls-11" cx="710.98" cy="802.64" rx="40.79" ry="39.59"/>
    <ellipse class="cls-7" cx="711.99" cy="802.56" rx="20.46" ry="19.86"/>
    <ellipse class="cls-7" cx="1336.98" cy="803.12" rx="81.34" ry="78.95"/>
    <ellipse class="cls-11" cx="1336.4" cy="803.03" rx="40.79" ry="39.59"/>
    <ellipse class="cls-7" cx="1337.41" cy="802.95" rx="20.46" ry="19.86"/>
    <polygon class="cls-1" points="564.75 168.85 736.4 544.07 698.91 575.11 521.2 204.9 564.75 168.85"/>
    <polygon class="cls-1" points="407.38 299.12 579.03 674.35 541.54 705.38 363.83 335.18 407.38 299.12"/>
    <path class="cls-2" d="M1341.83,458.73s-.55-23.27,13.32-21.05c13.86,2.21,54.18,6.53,54.18,6.53"/>
    <path class="cls-2" d="M1521.14,577.93s-7.29,22.3-22.64,15.84c-15.34-6.47-60.69-23.26-60.69-23.26"/>
  </g>
</svg>